<svg width="1920" height="1080" viewBox="0 0 1920 1080" fill="none" xmlns="http://www.w3.org/2000/svg">
<rect width="1920" height="1080" fill="white"/>
<rect x="360" y="24" width="48" height="48" rx="18" fill="#1B1B1B"/>
<rect x="396" y="38" width="4" height="24" rx="2" transform="rotate(90 396 38)" fill="white"/>
<rect x="388" y="46" width="4" height="16" rx="2" transform="rotate(90 388 46)" fill="white"/>
<rect x="396" y="54" width="4" height="24" rx="2" transform="rotate(90 396 54)" fill="white"/>
<path d="M425.969 59V38.75H428.5L439.061 54.5703V38.75H441.592V59H439.061L428.5 43.1656V59H425.969ZM452.106 59.4219C450.615 59.4219 449.312 59.0937 448.196 58.4375C447.09 57.7719 446.228 56.8484 445.609 55.6672C444.99 54.4766 444.681 53.0891 444.681 51.5047C444.681 49.8453 444.985 48.4109 445.595 47.2016C446.204 45.9828 447.053 45.0453 448.14 44.3891C449.237 43.7234 450.521 43.3906 451.993 43.3906C453.521 43.3906 454.82 43.7422 455.888 44.4453C456.967 45.1484 457.773 46.1516 458.307 47.4547C458.851 48.7578 459.085 50.3094 459.01 52.1094H456.479V51.2094C456.451 49.3438 456.071 47.9516 455.34 47.0328C454.609 46.1047 453.521 45.6406 452.078 45.6406C450.531 45.6406 449.354 46.1375 448.548 47.1313C447.742 48.125 447.338 49.55 447.338 51.4063C447.338 53.1969 447.742 54.5844 448.548 55.5687C449.354 56.5531 450.503 57.0453 451.993 57.0453C452.996 57.0453 453.868 56.8156 454.609 56.3563C455.349 55.8969 455.931 55.2359 456.353 54.3734L458.757 55.2031C458.167 56.5438 457.276 57.5844 456.085 58.325C454.904 59.0563 453.578 59.4219 452.106 59.4219ZM446.495 52.1094V50.0984H457.717V52.1094H446.495ZM459.904 59L465.712 51.3219L460.031 43.8125H463.012L467.175 49.3813L471.295 43.8125H474.276L468.595 51.3219L474.417 59H471.422L467.175 53.2625L462.9 59H459.904ZM485.15 59C484.25 59.1781 483.36 59.2484 482.478 59.2109C481.607 59.1828 480.828 59.0094 480.144 58.6906C479.46 58.3625 478.939 57.8562 478.583 57.1719C478.283 56.5719 478.119 55.9672 478.091 55.3578C478.072 54.7391 478.063 54.0406 478.063 53.2625V39.5937H480.566V53.15C480.566 53.7688 480.571 54.2984 480.58 54.7391C480.599 55.1797 480.697 55.5594 480.875 55.8781C481.213 56.4781 481.747 56.8297 482.478 56.9328C483.219 57.0359 484.11 57.0078 485.15 56.8484V59ZM474.983 45.8797V43.8125H485.15V45.8797H474.983ZM488.515 59V38.3281H491.018V59H488.515ZM497.347 65.75L500.286 57.7625L500.328 60.125L493.691 43.8125H496.32L501.523 56.9328H500.623L505.503 43.8125H508.048L499.78 65.75H497.347Z" fill="black"/>
<path d="M600.313 441.63C597.303 441.63 594.762 440.965 592.69 439.635C590.618 438.291 589.05 436.436 587.986 434.07C586.922 431.704 586.39 428.974 586.39 425.88C586.39 422.786 586.922 420.056 587.986 417.69C589.05 415.324 590.618 413.476 592.69 412.146C594.762 410.802 597.303 410.13 600.313 410.13C603.827 410.13 606.697 411.033 608.923 412.839C611.149 414.631 612.675 417.039 613.501 420.063L610.351 420.882C609.707 418.488 608.552 416.591 606.886 415.191C605.22 413.791 603.029 413.091 600.313 413.091C597.947 413.091 595.98 413.63 594.412 414.708C592.844 415.786 591.661 417.291 590.863 419.223C590.079 421.141 589.673 423.36 589.645 425.88C589.631 428.4 590.016 430.619 590.8 432.537C591.598 434.455 592.788 435.96 594.37 437.052C595.966 438.13 597.947 438.669 600.313 438.669C603.029 438.669 605.22 437.969 606.886 436.569C608.552 435.155 609.707 433.258 610.351 430.878L613.501 431.697C612.675 434.721 611.149 437.136 608.923 438.942C606.697 440.734 603.827 441.63 600.313 441.63ZM618.134 441V418.32H620.906V423.78L620.36 423.066C620.612 422.394 620.941 421.778 621.347 421.218C621.753 420.644 622.194 420.175 622.67 419.811C623.258 419.293 623.944 418.901 624.728 418.635C625.512 418.355 626.303 418.194 627.101 418.152C627.899 418.096 628.627 418.152 629.285 418.32V421.218C628.459 421.008 627.556 420.959 626.576 421.071C625.596 421.183 624.693 421.575 623.867 422.247C623.111 422.835 622.544 423.542 622.166 424.368C621.788 425.18 621.536 426.048 621.41 426.972C621.284 427.882 621.221 428.785 621.221 429.681V441H618.134ZM642.456 441.63C640.244 441.63 638.326 441.14 636.702 440.16C635.092 439.18 633.839 437.801 632.943 436.023C632.047 434.245 631.599 432.159 631.599 429.765C631.599 427.287 632.04 425.145 632.922 423.339C633.804 421.533 635.043 420.14 636.639 419.16C638.249 418.18 640.146 417.69 642.33 417.69C644.57 417.69 646.481 418.208 648.063 419.244C649.645 420.266 650.842 421.736 651.654 423.654C652.466 425.572 652.837 427.861 652.767 430.521H649.617V429.429C649.561 426.489 648.924 424.27 647.706 422.772C646.502 421.274 644.738 420.525 642.414 420.525C639.978 420.525 638.109 421.316 636.807 422.898C635.519 424.48 634.875 426.734 634.875 429.66C634.875 432.516 635.519 434.735 636.807 436.317C638.109 437.885 639.95 438.669 642.33 438.669C643.954 438.669 645.368 438.298 646.572 437.556C647.79 436.8 648.749 435.715 649.449 434.301L652.326 435.414C651.43 437.388 650.107 438.921 648.357 440.013C646.621 441.091 644.654 441.63 642.456 441.63ZM633.783 430.521V427.938H651.108V430.521H633.783ZM663.506 441.63C661.798 441.63 660.363 441.322 659.201 440.706C658.053 440.09 657.192 439.271 656.618 438.249C656.044 437.227 655.757 436.114 655.757 434.91C655.757 433.678 656.002 432.628 656.492 431.76C656.996 430.878 657.675 430.157 658.529 429.597C659.397 429.037 660.398 428.61 661.532 428.316C662.68 428.036 663.947 427.791 665.333 427.581C666.733 427.357 668.098 427.168 669.428 427.014C670.772 426.846 671.948 426.685 672.956 426.531L671.864 427.203C671.906 424.963 671.472 423.304 670.562 422.226C669.652 421.148 668.07 420.609 665.816 420.609C664.262 420.609 662.946 420.959 661.868 421.659C660.804 422.359 660.055 423.465 659.621 424.977L656.618 424.095C657.136 422.065 658.179 420.49 659.747 419.37C661.315 418.25 663.352 417.69 665.858 417.69C667.93 417.69 669.687 418.082 671.129 418.866C672.585 419.636 673.614 420.756 674.216 422.226C674.496 422.884 674.678 423.619 674.762 424.431C674.846 425.243 674.888 426.069 674.888 426.909V441H672.137V435.309L672.935 435.645C672.165 437.591 670.968 439.075 669.344 440.097C667.72 441.119 665.774 441.63 663.506 441.63ZM663.863 438.963C665.305 438.963 666.565 438.704 667.643 438.186C668.721 437.668 669.589 436.961 670.247 436.065C670.905 435.155 671.332 434.133 671.528 432.999C671.696 432.271 671.787 431.473 671.801 430.605C671.815 429.723 671.822 429.065 671.822 428.631L672.998 429.24C671.948 429.38 670.807 429.52 669.575 429.66C668.357 429.8 667.153 429.961 665.963 430.143C664.787 430.325 663.723 430.542 662.771 430.794C662.127 430.976 661.504 431.235 660.902 431.571C660.3 431.893 659.803 432.327 659.411 432.873C659.033 433.419 658.844 434.098 658.844 434.91C658.844 435.568 659.005 436.205 659.327 436.821C659.663 437.437 660.195 437.948 660.923 438.354C661.665 438.76 662.645 438.963 663.863 438.963ZM692.703 441C691.429 441.266 690.169 441.371 688.923 441.315C687.691 441.259 686.585 440.993 685.605 440.517C684.639 440.041 683.904 439.299 683.4 438.291C682.994 437.451 682.77 436.604 682.728 435.75C682.7 434.882 682.686 433.895 682.686 432.789V412.02H685.752V432.663C685.752 433.615 685.759 434.413 685.773 435.057C685.801 435.687 685.948 436.247 686.214 436.737C686.718 437.675 687.516 438.235 688.608 438.417C689.714 438.599 691.079 438.557 692.703 438.291V441ZM677.835 420.966V418.32H692.703V420.966H677.835ZM705.948 441.63C703.736 441.63 701.818 441.14 700.194 440.16C698.584 439.18 697.331 437.801 696.435 436.023C695.539 434.245 695.091 432.159 695.091 429.765C695.091 427.287 695.532 425.145 696.414 423.339C697.296 421.533 698.535 420.14 700.131 419.16C701.741 418.18 703.638 417.69 705.822 417.69C708.062 417.69 709.973 418.208 711.555 419.244C713.137 420.266 714.334 421.736 715.146 423.654C715.958 425.572 716.329 427.861 716.259 430.521H713.109V429.429C713.053 426.489 712.416 424.27 711.198 422.772C709.994 421.274 708.23 420.525 705.906 420.525C703.47 420.525 701.601 421.316 700.299 422.898C699.011 424.48 698.367 426.734 698.367 429.66C698.367 432.516 699.011 434.735 700.299 436.317C701.601 437.885 703.442 438.669 705.822 438.669C707.446 438.669 708.86 438.298 710.064 437.556C711.282 436.8 712.241 435.715 712.941 434.301L715.818 435.414C714.922 437.388 713.599 438.921 711.849 440.013C710.113 441.091 708.146 441.63 705.948 441.63ZM697.275 430.521V427.938H714.6V430.521H697.275ZM735.817 441.63C734.109 441.63 732.674 441.322 731.512 440.706C730.364 440.09 729.503 439.271 728.929 438.249C728.355 437.227 728.068 436.114 728.068 434.91C728.068 433.678 728.313 432.628 728.803 431.76C729.307 430.878 729.986 430.157 730.84 429.597C731.708 429.037 732.709 428.61 733.843 428.316C734.991 428.036 736.258 427.791 737.644 427.581C739.044 427.357 740.409 427.168 741.739 427.014C743.083 426.846 744.259 426.685 745.267 426.531L744.175 427.203C744.217 424.963 743.783 423.304 742.873 422.226C741.963 421.148 740.381 420.609 738.127 420.609C736.573 420.609 735.257 420.959 734.179 421.659C733.115 422.359 732.366 423.465 731.932 424.977L728.929 424.095C729.447 422.065 730.49 420.49 732.058 419.37C733.626 418.25 735.663 417.69 738.169 417.69C740.241 417.69 741.998 418.082 743.44 418.866C744.896 419.636 745.925 420.756 746.527 422.226C746.807 422.884 746.989 423.619 747.073 424.431C747.157 425.243 747.199 426.069 747.199 426.909V441H744.448V435.309L745.246 435.645C744.476 437.591 743.279 439.075 741.655 440.097C740.031 441.119 738.085 441.63 735.817 441.63ZM736.174 438.963C737.616 438.963 738.876 438.704 739.954 438.186C741.032 437.668 741.9 436.961 742.558 436.065C743.216 435.155 743.643 434.133 743.839 432.999C744.007 432.271 744.098 431.473 744.112 430.605C744.126 429.723 744.133 429.065 744.133 428.631L745.309 429.24C744.259 429.38 743.118 429.52 741.886 429.66C740.668 429.8 739.464 429.961 738.274 430.143C737.098 430.325 736.034 430.542 735.082 430.794C734.438 430.976 733.815 431.235 733.213 431.571C732.611 431.893 732.114 432.327 731.722 432.873C731.344 433.419 731.155 434.098 731.155 434.91C731.155 435.568 731.316 436.205 731.638 436.821C731.974 437.437 732.506 437.948 733.234 438.354C733.976 438.76 734.956 438.963 736.174 438.963ZM769.046 441V429.429C769.046 428.169 768.927 427.014 768.689 425.964C768.451 424.9 768.066 423.976 767.534 423.192C767.016 422.394 766.337 421.778 765.497 421.344C764.671 420.91 763.663 420.693 762.473 420.693C761.381 420.693 760.415 420.882 759.575 421.26C758.749 421.638 758.049 422.184 757.475 422.898C756.915 423.598 756.488 424.452 756.194 425.46C755.9 426.468 755.753 427.616 755.753 428.904L753.569 428.421C753.569 426.097 753.975 424.144 754.787 422.562C755.599 420.98 756.719 419.783 758.147 418.971C759.575 418.159 761.213 417.753 763.061 417.753C764.419 417.753 765.602 417.963 766.61 418.383C767.632 418.803 768.493 419.37 769.193 420.084C769.907 420.798 770.481 421.617 770.915 422.541C771.349 423.451 771.664 424.424 771.86 425.46C772.056 426.482 772.154 427.504 772.154 428.526V441H769.046ZM752.645 441V418.32H755.438V423.906H755.753V441H752.645ZM792.5 441.63C790.792 441.63 789.357 441.322 788.195 440.706C787.047 440.09 786.186 439.271 785.612 438.249C785.038 437.227 784.751 436.114 784.751 434.91C784.751 433.678 784.996 432.628 785.486 431.76C785.99 430.878 786.669 430.157 787.523 429.597C788.391 429.037 789.392 428.61 790.526 428.316C791.674 428.036 792.941 427.791 794.327 427.581C795.727 427.357 797.092 427.168 798.422 427.014C799.766 426.846 800.942 426.685 801.95 426.531L800.858 427.203C800.9 424.963 800.466 423.304 799.556 422.226C798.646 421.148 797.064 420.609 794.81 420.609C793.256 420.609 791.94 420.959 790.862 421.659C789.798 422.359 789.049 423.465 788.615 424.977L785.612 424.095C786.13 422.065 787.173 420.49 788.741 419.37C790.309 418.25 792.346 417.69 794.852 417.69C796.924 417.69 798.681 418.082 800.123 418.866C801.579 419.636 802.608 420.756 803.21 422.226C803.49 422.884 803.672 423.619 803.756 424.431C803.84 425.243 803.882 426.069 803.882 426.909V441H801.131V435.309L801.929 435.645C801.159 437.591 799.962 439.075 798.338 440.097C796.714 441.119 794.768 441.63 792.5 441.63ZM792.857 438.963C794.299 438.963 795.559 438.704 796.637 438.186C797.715 437.668 798.583 436.961 799.241 436.065C799.899 435.155 800.326 434.133 800.522 432.999C800.69 432.271 800.781 431.473 800.795 430.605C800.809 429.723 800.816 429.065 800.816 428.631L801.992 429.24C800.942 429.38 799.801 429.52 798.569 429.66C797.351 429.8 796.147 429.961 794.957 430.143C793.781 430.325 792.717 430.542 791.765 430.794C791.121 430.976 790.498 431.235 789.896 431.571C789.294 431.893 788.797 432.327 788.405 432.873C788.027 433.419 787.838 434.098 787.838 434.91C787.838 435.568 787.999 436.205 788.321 436.821C788.657 437.437 789.189 437.948 789.917 438.354C790.659 438.76 791.639 438.963 792.857 438.963ZM818.757 441.63C816.475 441.63 814.543 441.119 812.961 440.097C811.379 439.075 810.175 437.668 809.349 435.876C808.537 434.07 808.117 431.998 808.089 429.66C808.117 427.28 808.551 425.194 809.391 423.402C810.231 421.596 811.442 420.196 813.024 419.202C814.606 418.194 816.524 417.69 818.778 417.69C821.074 417.69 823.069 418.25 824.763 419.37C826.471 420.49 827.64 422.023 828.27 423.969L825.246 424.935C824.714 423.577 823.867 422.527 822.705 421.785C821.557 421.029 820.241 420.651 818.757 420.651C817.091 420.651 815.712 421.036 814.62 421.806C813.528 422.562 812.716 423.619 812.184 424.977C811.652 426.335 811.379 427.896 811.365 429.66C811.393 432.376 812.023 434.56 813.255 436.212C814.487 437.85 816.321 438.669 818.757 438.669C820.297 438.669 821.606 438.319 822.684 437.619C823.776 436.905 824.602 435.869 825.162 434.511L828.27 435.435C827.43 437.451 826.198 438.991 824.574 440.055C822.95 441.105 821.011 441.63 818.757 441.63ZM841.398 441.63C839.116 441.63 837.184 441.119 835.602 440.097C834.02 439.075 832.816 437.668 831.99 435.876C831.178 434.07 830.758 431.998 830.73 429.66C830.758 427.28 831.192 425.194 832.032 423.402C832.872 421.596 834.083 420.196 835.665 419.202C837.247 418.194 839.165 417.69 841.419 417.69C843.715 417.69 845.71 418.25 847.404 419.37C849.112 420.49 850.281 422.023 850.911 423.969L847.887 424.935C847.355 423.577 846.508 422.527 845.346 421.785C844.198 421.029 842.882 420.651 841.398 420.651C839.732 420.651 838.353 421.036 837.261 421.806C836.169 422.562 835.357 423.619 834.825 424.977C834.293 426.335 834.02 427.896 834.006 429.66C834.034 432.376 834.664 434.56 835.896 436.212C837.128 437.85 838.962 438.669 841.398 438.669C842.938 438.669 844.247 438.319 845.325 437.619C846.417 436.905 847.243 435.869 847.803 434.511L850.911 435.435C850.071 437.451 848.839 438.991 847.215 440.055C845.591 441.105 843.652 441.63 841.398 441.63ZM864.101 441.63C861.847 441.63 859.922 441.119 858.326 440.097C856.73 439.075 855.505 437.661 854.651 435.855C853.797 434.049 853.37 431.977 853.37 429.639C853.37 427.259 853.804 425.173 854.672 423.381C855.54 421.589 856.772 420.196 858.368 419.202C859.978 418.194 861.889 417.69 864.101 417.69C866.369 417.69 868.301 418.201 869.897 419.223C871.507 420.231 872.732 421.638 873.572 423.444C874.426 425.236 874.853 427.301 874.853 429.639C874.853 432.019 874.426 434.112 873.572 435.918C872.718 437.71 871.486 439.11 869.876 440.118C868.266 441.126 866.341 441.63 864.101 441.63ZM864.101 438.669C866.621 438.669 868.497 437.836 869.729 436.17C870.961 434.49 871.577 432.313 871.577 429.639C871.577 426.895 870.954 424.711 869.708 423.087C868.476 421.463 866.607 420.651 864.101 420.651C862.407 420.651 861.007 421.036 859.901 421.806C858.809 422.562 857.99 423.619 857.444 424.977C856.912 426.321 856.646 427.875 856.646 429.639C856.646 432.369 857.276 434.56 858.536 436.212C859.796 437.85 861.651 438.669 864.101 438.669ZM888.159 441.567C886.801 441.567 885.611 441.357 884.589 440.937C883.581 440.517 882.72 439.95 882.006 439.236C881.306 438.522 880.739 437.71 880.305 436.8C879.871 435.876 879.556 434.903 879.36 433.881C879.164 432.845 879.066 431.816 879.066 430.794V418.32H882.174V429.891C882.174 431.137 882.293 432.292 882.531 433.356C882.769 434.42 883.147 435.351 883.665 436.149C884.197 436.933 884.876 437.542 885.702 437.976C886.542 438.41 887.557 438.627 888.747 438.627C889.839 438.627 890.798 438.438 891.624 438.06C892.464 437.682 893.164 437.143 893.724 436.443C894.298 435.729 894.732 434.868 895.026 433.86C895.32 432.838 895.467 431.69 895.467 430.416L897.651 430.899C897.651 433.223 897.245 435.176 896.433 436.758C895.621 438.34 894.501 439.537 893.073 440.349C891.645 441.161 890.007 441.567 888.159 441.567ZM895.782 441V435.414H895.467V418.32H898.554V441H895.782ZM920.803 441V429.429C920.803 428.169 920.684 427.014 920.446 425.964C920.208 424.9 919.823 423.976 919.291 423.192C918.773 422.394 918.094 421.778 917.254 421.344C916.428 420.91 915.42 420.693 914.23 420.693C913.138 420.693 912.172 420.882 911.332 421.26C910.506 421.638 909.806 422.184 909.232 422.898C908.672 423.598 908.245 424.452 907.951 425.46C907.657 426.468 907.51 427.616 907.51 428.904L905.326 428.421C905.326 426.097 905.732 424.144 906.544 422.562C907.356 420.98 908.476 419.783 909.904 418.971C911.332 418.159 912.97 417.753 914.818 417.753C916.176 417.753 917.359 417.963 918.367 418.383C919.389 418.803 920.25 419.37 920.95 420.084C921.664 420.798 922.238 421.617 922.672 422.541C923.106 423.451 923.421 424.424 923.617 425.46C923.813 426.482 923.911 427.504 923.911 428.526V441H920.803ZM904.402 441V418.32H907.195V423.906H907.51V441H904.402ZM941.709 441C940.435 441.266 939.175 441.371 937.929 441.315C936.697 441.259 935.591 440.993 934.611 440.517C933.645 440.041 932.91 439.299 932.406 438.291C932 437.451 931.776 436.604 931.734 435.75C931.706 434.882 931.692 433.895 931.692 432.789V412.02H934.758V432.663C934.758 433.615 934.765 434.413 934.779 435.057C934.807 435.687 934.954 436.247 935.22 436.737C935.724 437.675 936.522 438.235 937.614 438.417C938.72 438.599 940.085 438.557 941.709 438.291V441ZM926.841 420.966V418.32H941.709V420.966H926.841ZM964.057 441.63C961.803 441.63 959.878 441.119 958.282 440.097C956.686 439.075 955.461 437.661 954.607 435.855C953.753 434.049 953.326 431.977 953.326 429.639C953.326 427.259 953.76 425.173 954.628 423.381C955.496 421.589 956.728 420.196 958.324 419.202C959.934 418.194 961.845 417.69 964.057 417.69C966.325 417.69 968.257 418.201 969.853 419.223C971.463 420.231 972.688 421.638 973.528 423.444C974.382 425.236 974.809 427.301 974.809 429.639C974.809 432.019 974.382 434.112 973.528 435.918C972.674 437.71 971.442 439.11 969.832 440.118C968.222 441.126 966.297 441.63 964.057 441.63ZM964.057 438.669C966.577 438.669 968.453 437.836 969.685 436.17C970.917 434.49 971.533 432.313 971.533 429.639C971.533 426.895 970.91 424.711 969.664 423.087C968.432 421.463 966.563 420.651 964.057 420.651C962.363 420.651 960.963 421.036 959.857 421.806C958.765 422.562 957.946 423.619 957.4 424.977C956.868 426.321 956.602 427.875 956.602 429.639C956.602 432.369 957.232 434.56 958.492 436.212C959.752 437.85 961.607 438.669 964.057 438.669ZM979.441 441V418.32H982.213V423.78L981.667 423.066C981.919 422.394 982.248 421.778 982.654 421.218C983.06 420.644 983.501 420.175 983.977 419.811C984.565 419.293 985.251 418.901 986.035 418.635C986.819 418.355 987.61 418.194 988.408 418.152C989.206 418.096 989.934 418.152 990.592 418.32V421.218C989.766 421.008 988.863 420.959 987.883 421.071C986.903 421.183 986 421.575 985.174 422.247C984.418 422.835 983.851 423.542 983.473 424.368C983.095 425.18 982.843 426.048 982.717 426.972C982.591 427.882 982.528 428.785 982.528 429.681V441H979.441ZM1003.4 441V410.13H1006.49V441H1003.4ZM1022.26 441.63C1020 441.63 1018.08 441.119 1016.48 440.097C1014.89 439.075 1013.66 437.661 1012.81 435.855C1011.95 434.049 1011.53 431.977 1011.53 429.639C1011.53 427.259 1011.96 425.173 1012.83 423.381C1013.7 421.589 1014.93 420.196 1016.52 419.202C1018.13 418.194 1020.05 417.69 1022.26 417.69C1024.53 417.69 1026.46 418.201 1028.05 419.223C1029.66 420.231 1030.89 421.638 1031.73 423.444C1032.58 425.236 1033.01 427.301 1033.01 429.639C1033.01 432.019 1032.58 434.112 1031.73 435.918C1030.87 437.71 1029.64 439.11 1028.03 440.118C1026.42 441.126 1024.5 441.63 1022.26 441.63ZM1022.26 438.669C1024.78 438.669 1026.65 437.836 1027.89 436.17C1029.12 434.49 1029.73 432.313 1029.73 429.639C1029.73 426.895 1029.11 424.711 1027.86 423.087C1026.63 421.463 1024.76 420.651 1022.26 420.651C1020.56 420.651 1019.16 421.036 1018.06 421.806C1016.97 422.562 1016.15 423.619 1015.6 424.977C1015.07 426.321 1014.8 427.875 1014.8 429.639C1014.8 432.369 1015.43 434.56 1016.69 436.212C1017.95 437.85 1019.81 438.669 1022.26 438.669ZM1046.65 451.71C1045.49 451.71 1044.34 451.535 1043.21 451.185C1042.09 450.849 1041.05 450.31 1040.1 449.568C1039.15 448.84 1038.35 447.888 1037.71 446.712L1040.5 445.158C1041.13 446.418 1042.01 447.321 1043.14 447.867C1044.29 448.427 1045.46 448.707 1046.65 448.707C1048.29 448.707 1049.61 448.399 1050.62 447.783C1051.64 447.181 1052.38 446.285 1052.85 445.095C1053.31 443.905 1053.53 442.421 1053.52 440.643V434.595H1053.88V418.32H1056.63V440.685C1056.63 441.329 1056.61 441.945 1056.56 442.533C1056.54 443.135 1056.47 443.723 1056.37 444.297C1056.11 445.991 1055.56 447.384 1054.72 448.476C1053.89 449.568 1052.8 450.38 1051.44 450.912C1050.1 451.444 1048.5 451.71 1046.65 451.71ZM1046.44 441.63C1044.33 441.63 1042.52 441.105 1041.02 440.055C1039.53 438.991 1038.38 437.556 1037.58 435.75C1036.78 433.944 1036.38 431.907 1036.38 429.639C1036.38 427.385 1036.77 425.355 1037.56 423.549C1038.36 421.743 1039.5 420.315 1040.98 419.265C1042.47 418.215 1044.24 417.69 1046.32 417.69C1048.44 417.69 1050.24 418.208 1051.69 419.244C1053.15 420.28 1054.25 421.701 1054.99 423.507C1055.74 425.299 1056.12 427.343 1056.12 429.639C1056.12 431.893 1055.75 433.93 1055.01 435.75C1054.27 437.556 1053.18 438.991 1051.73 440.055C1050.29 441.105 1048.53 441.63 1046.44 441.63ZM1046.76 438.753C1048.37 438.753 1049.7 438.361 1050.75 437.577C1051.8 436.793 1052.58 435.715 1053.1 434.343C1053.62 432.957 1053.88 431.389 1053.88 429.639C1053.88 427.861 1053.62 426.293 1053.1 424.935C1052.58 423.563 1051.8 422.492 1050.75 421.722C1049.71 420.952 1048.4 420.567 1046.82 420.567C1045.2 420.567 1043.85 420.966 1042.79 421.764C1041.72 422.562 1040.93 423.647 1040.41 425.019C1039.91 426.391 1039.66 427.931 1039.66 429.639C1039.66 431.361 1039.92 432.915 1040.44 434.301C1040.97 435.673 1041.76 436.758 1042.81 437.556C1043.86 438.354 1045.17 438.753 1046.76 438.753ZM1071.33 414.015V410.55H1074.41V414.015H1071.33ZM1071.33 441V418.32H1074.41V441H1071.33ZM1097.09 441V429.429C1097.09 428.169 1096.97 427.014 1096.73 425.964C1096.49 424.9 1096.11 423.976 1095.58 423.192C1095.06 422.394 1094.38 421.778 1093.54 421.344C1092.71 420.91 1091.71 420.693 1090.52 420.693C1089.42 420.693 1088.46 420.882 1087.62 421.26C1086.79 421.638 1086.09 422.184 1085.52 422.898C1084.96 423.598 1084.53 424.452 1084.24 425.46C1083.94 426.468 1083.8 427.616 1083.8 428.904L1081.61 428.421C1081.61 426.097 1082.02 424.144 1082.83 422.562C1083.64 420.98 1084.76 419.783 1086.19 418.971C1087.62 418.159 1089.26 417.753 1091.1 417.753C1092.46 417.753 1093.64 417.963 1094.65 418.383C1095.67 418.803 1096.54 419.37 1097.24 420.084C1097.95 420.798 1098.52 421.617 1098.96 422.541C1099.39 423.451 1099.71 424.424 1099.9 425.46C1100.1 426.482 1100.2 427.504 1100.2 428.526V441H1097.09ZM1080.69 441V418.32H1083.48V423.906H1083.8V441H1080.69ZM1126.4 441C1125.13 441.266 1123.87 441.371 1122.62 441.315C1121.39 441.259 1120.28 440.993 1119.3 440.517C1118.34 440.041 1117.6 439.299 1117.1 438.291C1116.69 437.451 1116.47 436.604 1116.43 435.75C1116.4 434.882 1116.39 433.895 1116.39 432.789V412.02H1119.45V432.663C1119.45 433.615 1119.46 434.413 1119.47 435.057C1119.5 435.687 1119.65 436.247 1119.91 436.737C1120.42 437.675 1121.22 438.235 1122.31 438.417C1123.41 438.599 1124.78 438.557 1126.4 438.291V441ZM1111.53 420.966V418.32H1126.4V420.966H1111.53ZM1139.52 441.63C1137.27 441.63 1135.34 441.119 1133.75 440.097C1132.15 439.075 1130.93 437.661 1130.07 435.855C1129.22 434.049 1128.79 431.977 1128.79 429.639C1128.79 427.259 1129.22 425.173 1130.09 423.381C1130.96 421.589 1132.19 420.196 1133.79 419.202C1135.4 418.194 1137.31 417.69 1139.52 417.69C1141.79 417.69 1143.72 418.201 1145.32 419.223C1146.93 420.231 1148.15 421.638 1148.99 423.444C1149.85 425.236 1150.27 427.301 1150.27 429.639C1150.27 432.019 1149.85 434.112 1148.99 435.918C1148.14 437.71 1146.91 439.11 1145.3 440.118C1143.69 441.126 1141.76 441.63 1139.52 441.63ZM1139.52 438.669C1142.04 438.669 1143.92 437.836 1145.15 436.17C1146.38 434.49 1147 432.313 1147 429.639C1147 426.895 1146.37 424.711 1145.13 423.087C1143.9 421.463 1142.03 420.651 1139.52 420.651C1137.83 420.651 1136.43 421.036 1135.32 421.806C1134.23 422.562 1133.41 423.619 1132.86 424.977C1132.33 426.321 1132.07 427.875 1132.07 429.639C1132.07 432.369 1132.7 434.56 1133.96 436.212C1135.22 437.85 1137.07 438.669 1139.52 438.669ZM1172.72 441.63C1170.44 441.63 1168.51 441.119 1166.93 440.097C1165.34 439.075 1164.14 437.668 1163.31 435.876C1162.5 434.07 1162.08 431.998 1162.05 429.66C1162.08 427.28 1162.52 425.194 1163.36 423.402C1164.2 421.596 1165.41 420.196 1166.99 419.202C1168.57 418.194 1170.49 417.69 1172.74 417.69C1175.04 417.69 1177.03 418.25 1178.73 419.37C1180.44 420.49 1181.61 422.023 1182.24 423.969L1179.21 424.935C1178.68 423.577 1177.83 422.527 1176.67 421.785C1175.52 421.029 1174.21 420.651 1172.72 420.651C1171.06 420.651 1169.68 421.036 1168.59 421.806C1167.49 422.562 1166.68 423.619 1166.15 424.977C1165.62 426.335 1165.34 427.896 1165.33 429.66C1165.36 432.376 1165.99 434.56 1167.22 436.212C1168.45 437.85 1170.29 438.669 1172.72 438.669C1174.26 438.669 1175.57 438.319 1176.65 437.619C1177.74 436.905 1178.57 435.869 1179.13 434.511L1182.24 435.435C1181.4 437.451 1180.16 438.991 1178.54 440.055C1176.92 441.105 1174.98 441.63 1172.72 441.63ZM1195.43 441.63C1193.17 441.63 1191.25 441.119 1189.65 440.097C1188.05 439.075 1186.83 437.661 1185.98 435.855C1185.12 434.049 1184.69 431.977 1184.69 429.639C1184.69 427.259 1185.13 425.173 1186 423.381C1186.86 421.589 1188.1 420.196 1189.69 419.202C1191.3 418.194 1193.21 417.69 1195.43 417.69C1197.69 417.69 1199.63 418.201 1201.22 419.223C1202.83 420.231 1204.06 421.638 1204.9 423.444C1205.75 425.236 1206.18 427.301 1206.18 429.639C1206.18 432.019 1205.75 434.112 1204.9 435.918C1204.04 437.71 1202.81 439.11 1201.2 440.118C1199.59 441.126 1197.67 441.63 1195.43 441.63ZM1195.43 438.669C1197.95 438.669 1199.82 437.836 1201.05 436.17C1202.29 434.49 1202.9 432.313 1202.9 429.639C1202.9 426.895 1202.28 424.711 1201.03 423.087C1199.8 421.463 1197.93 420.651 1195.43 420.651C1193.73 420.651 1192.33 421.036 1191.23 421.806C1190.13 422.562 1189.31 423.619 1188.77 424.977C1188.24 426.321 1187.97 427.875 1187.97 429.639C1187.97 432.369 1188.6 434.56 1189.86 436.212C1191.12 437.85 1192.98 438.669 1195.43 438.669ZM1227.19 441V429.429C1227.19 428.169 1227.07 427.014 1226.83 425.964C1226.6 424.9 1226.21 423.976 1225.68 423.192C1225.16 422.394 1224.48 421.778 1223.64 421.344C1222.82 420.91 1221.81 420.693 1220.62 420.693C1219.53 420.693 1218.56 420.882 1217.72 421.26C1216.89 421.638 1216.19 422.184 1215.62 422.898C1215.06 423.598 1214.63 424.452 1214.34 425.46C1214.04 426.468 1213.9 427.616 1213.9 428.904L1211.71 428.421C1211.71 426.097 1212.12 424.144 1212.93 422.562C1213.74 420.98 1214.86 419.783 1216.29 418.971C1217.72 418.159 1219.36 417.753 1221.21 417.753C1222.56 417.753 1223.75 417.963 1224.75 418.383C1225.78 418.803 1226.64 419.37 1227.34 420.084C1228.05 420.798 1228.63 421.617 1229.06 422.541C1229.49 423.451 1229.81 424.424 1230 425.46C1230.2 426.482 1230.3 427.504 1230.3 428.526V441H1227.19ZM1210.79 441V418.32H1213.58V423.906H1213.9V441H1210.79ZM1248.1 441C1246.82 441.266 1245.56 441.371 1244.32 441.315C1243.08 441.259 1241.98 440.993 1241 440.517C1240.03 440.041 1239.3 439.299 1238.79 438.291C1238.39 437.451 1238.16 436.604 1238.12 435.75C1238.09 434.882 1238.08 433.895 1238.08 432.789V412.02H1241.14V432.663C1241.14 433.615 1241.15 434.413 1241.17 435.057C1241.19 435.687 1241.34 436.247 1241.61 436.737C1242.11 437.675 1242.91 438.235 1244 438.417C1245.11 438.599 1246.47 438.557 1248.1 438.291V441ZM1233.23 420.966V418.32H1248.1V420.966H1233.23ZM1252.98 414.015V410.55H1256.07V414.015H1252.98ZM1252.98 441V418.32H1256.07V441H1252.98ZM1278.75 441V429.429C1278.75 428.169 1278.63 427.014 1278.39 425.964C1278.15 424.9 1277.77 423.976 1277.23 423.192C1276.72 422.394 1276.04 421.778 1275.2 421.344C1274.37 420.91 1273.36 420.693 1272.17 420.693C1271.08 420.693 1270.12 420.882 1269.28 421.26C1268.45 421.638 1267.75 422.184 1267.18 422.898C1266.62 423.598 1266.19 424.452 1265.89 425.46C1265.6 426.468 1265.45 427.616 1265.45 428.904L1263.27 428.421C1263.27 426.097 1263.68 424.144 1264.49 422.562C1265.3 420.98 1266.42 419.783 1267.85 418.971C1269.28 418.159 1270.91 417.753 1272.76 417.753C1274.12 417.753 1275.3 417.963 1276.31 418.383C1277.33 418.803 1278.19 419.37 1278.89 420.084C1279.61 420.798 1280.18 421.617 1280.62 422.541C1281.05 423.451 1281.36 424.424 1281.56 425.46C1281.76 426.482 1281.85 427.504 1281.85 428.526V441H1278.75ZM1262.35 441V418.32H1265.14V423.906H1265.45V441H1262.35ZM1295.98 441.567C1294.62 441.567 1293.43 441.357 1292.41 440.937C1291.4 440.517 1290.54 439.95 1289.82 439.236C1289.12 438.522 1288.56 437.71 1288.12 436.8C1287.69 435.876 1287.37 434.903 1287.18 433.881C1286.98 432.845 1286.88 431.816 1286.88 430.794V418.32H1289.99V429.891C1289.99 431.137 1290.11 432.292 1290.35 433.356C1290.59 434.42 1290.97 435.351 1291.48 436.149C1292.02 436.933 1292.69 437.542 1293.52 437.976C1294.36 438.41 1295.38 438.627 1296.57 438.627C1297.66 438.627 1298.62 438.438 1299.44 438.06C1300.28 437.682 1300.98 437.143 1301.54 436.443C1302.12 435.729 1302.55 434.868 1302.84 433.86C1303.14 432.838 1303.29 431.69 1303.29 430.416L1305.47 430.899C1305.47 433.223 1305.06 435.176 1304.25 436.758C1303.44 438.34 1302.32 439.537 1300.89 440.349C1299.46 441.161 1297.83 441.567 1295.98 441.567ZM1303.6 441V435.414H1303.29V418.32H1306.37V441H1303.6ZM1321.84 441.63C1319.63 441.63 1317.71 441.14 1316.08 440.16C1314.47 439.18 1313.22 437.801 1312.33 436.023C1311.43 434.245 1310.98 432.159 1310.98 429.765C1310.98 427.287 1311.42 425.145 1312.3 423.339C1313.19 421.533 1314.43 420.14 1316.02 419.16C1317.63 418.18 1319.53 417.69 1321.71 417.69C1323.95 417.69 1325.86 418.208 1327.45 419.244C1329.03 420.266 1330.22 421.736 1331.04 423.654C1331.85 425.572 1332.22 427.861 1332.15 430.521H1329V429.429C1328.94 426.489 1328.31 424.27 1327.09 422.772C1325.88 421.274 1324.12 420.525 1321.8 420.525C1319.36 420.525 1317.49 421.316 1316.19 422.898C1314.9 424.48 1314.26 426.734 1314.26 429.66C1314.26 432.516 1314.9 434.735 1316.19 436.317C1317.49 437.885 1319.33 438.669 1321.71 438.669C1323.34 438.669 1324.75 438.298 1325.95 437.556C1327.17 436.8 1328.13 435.715 1328.83 434.301L1331.71 435.414C1330.81 437.388 1329.49 438.921 1327.74 440.013C1326 441.091 1324.04 441.63 1321.84 441.63ZM1313.17 430.521V427.938H1330.49V430.521H1313.17Z" fill="#1B1B1B"/>
<rect x="766.5" y="509" width="386" height="64" rx="16" fill="#1B1B1B"/>
<path d="M929.072 547.3C928.018 547.3 927.068 547.117 926.222 546.75C925.382 546.383 924.688 545.86 924.142 545.18C923.602 544.493 923.258 543.68 923.112 542.74L925.612 542.36C925.825 543.213 926.262 543.873 926.922 544.34C927.588 544.807 928.355 545.04 929.222 545.04C929.735 545.04 930.218 544.96 930.672 544.8C931.125 544.64 931.492 544.407 931.772 544.1C932.058 543.793 932.202 543.417 932.202 542.97C932.202 542.77 932.168 542.587 932.102 542.42C932.035 542.247 931.935 542.093 931.802 541.96C931.675 541.827 931.508 541.707 931.302 541.6C931.102 541.487 930.868 541.39 930.602 541.31L926.882 540.21C926.562 540.117 926.215 539.993 925.842 539.84C925.475 539.68 925.125 539.463 924.792 539.19C924.465 538.91 924.195 538.557 923.982 538.13C923.775 537.697 923.672 537.163 923.672 536.53C923.672 535.603 923.905 534.827 924.372 534.2C924.845 533.567 925.478 533.093 926.272 532.78C927.072 532.467 927.958 532.313 928.932 532.32C929.918 532.327 930.798 532.497 931.572 532.83C932.345 533.157 932.992 533.633 933.512 534.26C934.032 534.887 934.398 535.643 934.612 536.53L932.022 536.98C931.915 536.473 931.708 536.043 931.402 535.69C931.102 535.33 930.732 535.057 930.292 534.87C929.858 534.683 929.395 534.583 928.902 534.57C928.422 534.563 927.975 534.637 927.562 534.79C927.155 534.937 926.825 535.15 926.572 535.43C926.325 535.71 926.202 536.037 926.202 536.41C926.202 536.763 926.308 537.053 926.522 537.28C926.735 537.5 926.998 537.677 927.312 537.81C927.632 537.937 927.955 538.043 928.282 538.13L930.862 538.85C931.215 538.943 931.612 539.07 932.052 539.23C932.492 539.39 932.915 539.613 933.322 539.9C933.728 540.187 934.062 540.563 934.322 541.03C934.588 541.497 934.722 542.09 934.722 542.81C934.722 543.557 934.565 544.213 934.252 544.78C933.945 545.34 933.528 545.807 933.002 546.18C932.475 546.553 931.872 546.833 931.192 547.02C930.518 547.207 929.812 547.3 929.072 547.3ZM937.086 534.56V532.35H939.496V534.56H937.086ZM937.086 547V536.2H939.496V547H937.086ZM947.032 552.1C946.432 552.1 945.855 552.007 945.302 551.82C944.755 551.633 944.262 551.363 943.822 551.01C943.382 550.663 943.022 550.243 942.742 549.75L944.962 548.65C945.168 549.043 945.458 549.333 945.832 549.52C946.212 549.713 946.615 549.81 947.042 549.81C947.542 549.81 947.988 549.72 948.382 549.54C948.775 549.367 949.078 549.107 949.292 548.76C949.512 548.42 949.615 547.993 949.602 547.48V544.41H949.902V536.2H952.012V547.52C952.012 547.793 951.998 548.053 951.972 548.3C951.952 548.553 951.915 548.8 951.862 549.04C951.702 549.74 951.395 550.313 950.942 550.76C950.488 551.213 949.925 551.55 949.252 551.77C948.585 551.99 947.845 552.1 947.032 552.1ZM946.822 547.3C945.828 547.3 944.962 547.05 944.222 546.55C943.482 546.05 942.908 545.37 942.502 544.51C942.095 543.65 941.892 542.68 941.892 541.6C941.892 540.507 942.095 539.533 942.502 538.68C942.915 537.82 943.498 537.143 944.252 536.65C945.005 536.15 945.892 535.9 946.912 535.9C947.938 535.9 948.798 536.15 949.492 536.65C950.192 537.143 950.722 537.82 951.082 538.68C951.442 539.54 951.622 540.513 951.622 541.6C951.622 542.673 951.442 543.643 951.082 544.51C950.722 545.37 950.185 546.05 949.472 546.55C948.758 547.05 947.875 547.3 946.822 547.3ZM947.192 545.14C947.838 545.14 948.358 544.993 948.752 544.7C949.152 544.4 949.442 543.983 949.622 543.45C949.808 542.917 949.902 542.3 949.902 541.6C949.902 540.893 949.808 540.277 949.622 539.75C949.442 539.217 949.158 538.803 948.772 538.51C948.385 538.21 947.885 538.06 947.272 538.06C946.625 538.06 946.092 538.22 945.672 538.54C945.252 538.853 944.942 539.28 944.742 539.82C944.542 540.353 944.442 540.947 944.442 541.6C944.442 542.26 944.538 542.86 944.732 543.4C944.932 543.933 945.235 544.357 945.642 544.67C946.048 544.983 946.565 545.14 947.192 545.14ZM962.286 547V541.8C962.286 541.46 962.263 541.083 962.216 540.67C962.169 540.257 962.059 539.86 961.886 539.48C961.719 539.093 961.466 538.777 961.126 538.53C960.793 538.283 960.339 538.16 959.766 538.16C959.459 538.16 959.156 538.21 958.856 538.31C958.556 538.41 958.283 538.583 958.036 538.83C957.796 539.07 957.603 539.403 957.456 539.83C957.309 540.25 957.236 540.79 957.236 541.45L955.806 540.84C955.806 539.92 955.983 539.087 956.336 538.34C956.696 537.593 957.223 537 957.916 536.56C958.609 536.113 959.463 535.89 960.476 535.89C961.276 535.89 961.936 536.023 962.456 536.29C962.976 536.557 963.389 536.897 963.696 537.31C964.003 537.723 964.229 538.163 964.376 538.63C964.523 539.097 964.616 539.54 964.656 539.96C964.703 540.373 964.726 540.71 964.726 540.97V547H962.286ZM954.796 547V536.2H956.946V539.55H957.236V547H954.796ZM977.139 547.3C975.993 547.3 974.983 547.067 974.109 546.6C973.243 546.133 972.563 545.477 972.069 544.63C971.583 543.783 971.339 542.79 971.339 541.65V532.62L973.779 532.6V541.59C973.779 542.13 973.869 542.613 974.049 543.04C974.236 543.467 974.486 543.83 974.799 544.13C975.113 544.423 975.473 544.647 975.879 544.8C976.286 544.953 976.706 545.03 977.139 545.03C977.586 545.03 978.009 544.953 978.409 544.8C978.816 544.64 979.176 544.413 979.489 544.12C979.803 543.82 980.049 543.457 980.229 543.03C980.409 542.603 980.499 542.123 980.499 541.59V532.6H982.939V541.65C982.939 542.79 982.693 543.783 982.199 544.63C981.713 545.477 981.033 546.133 980.159 546.6C979.293 547.067 978.286 547.3 977.139 547.3ZM990.924 547.3C989.871 547.3 988.987 547.05 988.274 546.55C987.561 546.05 987.024 545.37 986.664 544.51C986.304 543.643 986.124 542.673 986.124 541.6C986.124 540.513 986.304 539.54 986.664 538.68C987.024 537.82 987.551 537.143 988.244 536.65C988.944 536.15 989.807 535.9 990.834 535.9C991.854 535.9 992.737 536.15 993.484 536.65C994.237 537.143 994.821 537.82 995.234 538.68C995.647 539.533 995.854 540.507 995.854 541.6C995.854 542.68 995.651 543.65 995.244 544.51C994.837 545.37 994.264 546.05 993.524 546.55C992.784 547.05 991.917 547.3 990.924 547.3ZM985.714 551.8V536.2H987.844V543.78H988.144V551.8H985.714ZM990.554 545.14C991.181 545.14 991.697 544.983 992.104 544.67C992.511 544.357 992.811 543.933 993.004 543.4C993.204 542.86 993.304 542.26 993.304 541.6C993.304 540.947 993.204 540.353 993.004 539.82C992.804 539.28 992.494 538.853 992.074 538.54C991.654 538.22 991.121 538.06 990.474 538.06C989.861 538.06 989.361 538.21 988.974 538.51C988.587 538.803 988.301 539.217 988.114 539.75C987.934 540.277 987.844 540.893 987.844 541.6C987.844 542.3 987.934 542.917 988.114 543.45C988.301 543.983 988.591 544.4 988.984 544.7C989.384 544.993 989.907 545.14 990.554 545.14Z" fill="white"/>
<rect x="767" y="605.5" width="385" height="63" rx="15.5" stroke="#1B1B1B"/>
<path d="M932.36 643V628.6H934.77V640.74H941.13V643H932.36ZM947.594 643.3C946.514 643.3 945.57 643.057 944.764 642.57C943.957 642.083 943.33 641.413 942.884 640.56C942.444 639.7 942.224 638.713 942.224 637.6C942.224 636.467 942.45 635.473 942.904 634.62C943.357 633.767 943.987 633.1 944.794 632.62C945.6 632.14 946.534 631.9 947.594 631.9C948.68 631.9 949.627 632.143 950.434 632.63C951.24 633.117 951.867 633.79 952.314 634.65C952.76 635.503 952.984 636.487 952.984 637.6C952.984 638.72 952.757 639.71 952.304 640.57C951.857 641.423 951.23 642.093 950.424 642.58C949.617 643.06 948.674 643.3 947.594 643.3ZM947.594 641.04C948.554 641.04 949.267 640.72 949.734 640.08C950.2 639.44 950.434 638.613 950.434 637.6C950.434 636.553 950.197 635.72 949.724 635.1C949.25 634.473 948.54 634.16 947.594 634.16C946.947 634.16 946.414 634.307 945.994 634.6C945.58 634.887 945.274 635.29 945.074 635.81C944.874 636.323 944.774 636.92 944.774 637.6C944.774 638.647 945.01 639.483 945.484 640.11C945.964 640.73 946.667 641.04 947.594 641.04ZM959.727 648.1C959.127 648.1 958.55 648.007 957.997 647.82C957.45 647.633 956.957 647.363 956.517 647.01C956.077 646.663 955.717 646.243 955.437 645.75L957.657 644.65C957.864 645.043 958.154 645.333 958.527 645.52C958.907 645.713 959.31 645.81 959.737 645.81C960.237 645.81 960.684 645.72 961.077 645.54C961.47 645.367 961.774 645.107 961.987 644.76C962.207 644.42 962.31 643.993 962.297 643.48V640.41H962.597V632.2H964.707V643.52C964.707 643.793 964.694 644.053 964.667 644.3C964.647 644.553 964.61 644.8 964.557 645.04C964.397 645.74 964.09 646.313 963.637 646.76C963.184 647.213 962.62 647.55 961.947 647.77C961.28 647.99 960.54 648.1 959.727 648.1ZM959.517 643.3C958.524 643.3 957.657 643.05 956.917 642.55C956.177 642.05 955.604 641.37 955.197 640.51C954.79 639.65 954.587 638.68 954.587 637.6C954.587 636.507 954.79 635.533 955.197 634.68C955.61 633.82 956.194 633.143 956.947 632.65C957.7 632.15 958.587 631.9 959.607 631.9C960.634 631.9 961.494 632.15 962.187 632.65C962.887 633.143 963.417 633.82 963.777 634.68C964.137 635.54 964.317 636.513 964.317 637.6C964.317 638.673 964.137 639.643 963.777 640.51C963.417 641.37 962.88 642.05 962.167 642.55C961.454 643.05 960.57 643.3 959.517 643.3ZM959.887 641.14C960.534 641.14 961.054 640.993 961.447 640.7C961.847 640.4 962.137 639.983 962.317 639.45C962.504 638.917 962.597 638.3 962.597 637.6C962.597 636.893 962.504 636.277 962.317 635.75C962.137 635.217 961.854 634.803 961.467 634.51C961.08 634.21 960.58 634.06 959.967 634.06C959.32 634.06 958.787 634.22 958.367 634.54C957.947 634.853 957.637 635.28 957.437 635.82C957.237 636.353 957.137 636.947 957.137 637.6C957.137 638.26 957.234 638.86 957.427 639.4C957.627 639.933 957.93 640.357 958.337 640.67C958.744 640.983 959.26 641.14 959.887 641.14ZM971.715 630.56V628.35H974.125V630.56H971.715ZM971.715 643V632.2H974.125V643H971.715ZM984.591 643V637.8C984.591 637.46 984.567 637.083 984.521 636.67C984.474 636.257 984.364 635.86 984.191 635.48C984.024 635.093 983.771 634.777 983.431 634.53C983.097 634.283 982.644 634.16 982.071 634.16C981.764 634.16 981.461 634.21 981.161 634.31C980.861 634.41 980.587 634.583 980.341 634.83C980.101 635.07 979.907 635.403 979.761 635.83C979.614 636.25 979.541 636.79 979.541 637.45L978.111 636.84C978.111 635.92 978.287 635.087 978.641 634.34C979.001 633.593 979.527 633 980.221 632.56C980.914 632.113 981.767 631.89 982.781 631.89C983.581 631.89 984.241 632.023 984.761 632.29C985.281 632.557 985.694 632.897 986.001 633.31C986.307 633.723 986.534 634.163 986.681 634.63C986.827 635.097 986.921 635.54 986.961 635.96C987.007 636.373 987.031 636.71 987.031 636.97V643H984.591ZM977.101 643V632.2H979.251V635.55H979.541V643H977.101Z" fill="#1B1B1B"/>
</svg>
