<svg width="320" height="660" viewBox="0 0 320 660" fill="none" xmlns="http://www.w3.org/2000/svg">
<rect width="320" height="660" fill="white"/>
<rect x="24" y="24" width="48" height="48" rx="18" fill="#1B1B1B"/>
<rect x="60" y="38" width="4" height="24" rx="2" transform="rotate(90 60 38)" fill="white"/>
<rect x="52" y="46" width="4" height="16" rx="2" transform="rotate(90 52 46)" fill="white"/>
<rect x="60" y="54" width="4" height="24" rx="2" transform="rotate(90 60 54)" fill="white"/>
<path d="M89.9687 59V38.75H92.5L103.061 54.5703V38.75H105.592V59H103.061L92.5 43.1656V59H89.9687ZM116.106 59.4219C114.615 59.4219 113.312 59.0937 112.196 58.4375C111.09 57.7719 110.228 56.8484 109.609 55.6672C108.99 54.4766 108.681 53.0891 108.681 51.5047C108.681 49.8453 108.985 48.4109 109.595 47.2016C110.204 45.9828 111.053 45.0453 112.14 44.3891C113.237 43.7234 114.521 43.3906 115.993 43.3906C117.521 43.3906 118.82 43.7422 119.888 44.4453C120.967 45.1484 121.773 46.1516 122.307 47.4547C122.851 48.7578 123.085 50.3094 123.01 52.1094H120.479V51.2094C120.451 49.3438 120.071 47.9516 119.34 47.0328C118.609 46.1047 117.521 45.6406 116.078 45.6406C114.531 45.6406 113.354 46.1375 112.548 47.1313C111.742 48.125 111.338 49.55 111.338 51.4063C111.338 53.1969 111.742 54.5844 112.548 55.5687C113.354 56.5531 114.503 57.0453 115.993 57.0453C116.996 57.0453 117.868 56.8156 118.609 56.3563C119.349 55.8969 119.931 55.2359 120.353 54.3734L122.757 55.2031C122.167 56.5438 121.276 57.5844 120.085 58.325C118.904 59.0563 117.578 59.4219 116.106 59.4219ZM110.495 52.1094V50.0984H121.717V52.1094H110.495ZM123.904 59L129.712 51.3219L124.031 43.8125H127.012L131.175 49.3813L135.295 43.8125H138.276L132.595 51.3219L138.417 59H135.422L131.175 53.2625L126.9 59H123.904ZM149.15 59C148.25 59.1781 147.36 59.2484 146.478 59.2109C145.607 59.1828 144.828 59.0094 144.144 58.6906C143.46 58.3625 142.939 57.8562 142.583 57.1719C142.283 56.5719 142.119 55.9672 142.091 55.3578C142.072 54.7391 142.063 54.0406 142.063 53.2625V39.5937H144.566V53.15C144.566 53.7688 144.571 54.2984 144.58 54.7391C144.599 55.1797 144.697 55.5594 144.875 55.8781C145.213 56.4781 145.747 56.8297 146.478 56.9328C147.219 57.0359 148.11 57.0078 149.15 56.8484V59ZM138.983 45.8797V43.8125H149.15V45.8797H138.983ZM152.515 59V38.3281H155.018V59H152.515ZM161.347 65.75L164.286 57.7625L164.328 60.125L157.691 43.8125H160.32L165.523 56.9328H164.623L169.503 43.8125H172.048L163.78 65.75H161.347Z" fill="black"/>
<path d="M51.6291 267.36C49.9091 267.36 48.4571 266.98 47.2731 266.22C46.0891 265.452 45.1931 264.392 44.5851 263.04C43.9771 261.688 43.6731 260.128 43.6731 258.36C43.6731 256.592 43.9771 255.032 44.5851 253.68C45.1931 252.328 46.0891 251.272 47.2731 250.512C48.4571 249.744 49.9091 249.36 51.6291 249.36C53.6371 249.36 55.2771 249.876 56.5491 250.908C57.8211 251.932 58.6931 253.308 59.1651 255.036L57.3651 255.504C56.9971 254.136 56.3371 253.052 55.3851 252.252C54.4331 251.452 53.1811 251.052 51.6291 251.052C50.2771 251.052 49.1531 251.36 48.2571 251.976C47.3611 252.592 46.6851 253.452 46.2291 254.556C45.7811 255.652 45.5491 256.92 45.5331 258.36C45.5251 259.8 45.7451 261.068 46.1931 262.164C46.6491 263.26 47.3291 264.12 48.2331 264.744C49.1451 265.36 50.2771 265.668 51.6291 265.668C53.1811 265.668 54.4331 265.268 55.3851 264.468C56.3371 263.66 56.9971 262.576 57.3651 261.216L59.1651 261.684C58.6931 263.412 57.8211 264.792 56.5491 265.824C55.2771 266.848 53.6371 267.36 51.6291 267.36ZM61.8128 267V254.04H63.3968V257.16L63.0848 256.752C63.2288 256.368 63.4168 256.016 63.6488 255.696C63.8808 255.368 64.1328 255.1 64.4048 254.892C64.7408 254.596 65.1328 254.372 65.5808 254.22C66.0288 254.06 66.4808 253.968 66.9368 253.944C67.3928 253.912 67.8088 253.944 68.1848 254.04V255.696C67.7128 255.576 67.1968 255.548 66.6368 255.612C66.0768 255.676 65.5608 255.9 65.0888 256.284C64.6568 256.62 64.3328 257.024 64.1168 257.496C63.9008 257.96 63.7568 258.456 63.6848 258.984C63.6128 259.504 63.5768 260.02 63.5768 260.532V267H61.8128ZM75.7109 267.36C74.4469 267.36 73.3509 267.08 72.4229 266.52C71.5029 265.96 70.7869 265.172 70.2749 264.156C69.7629 263.14 69.5069 261.948 69.5069 260.58C69.5069 259.164 69.7589 257.94 70.2629 256.908C70.7669 255.876 71.4749 255.08 72.3869 254.52C73.3069 253.96 74.3909 253.68 75.6389 253.68C76.9189 253.68 78.0109 253.976 78.9149 254.568C79.8189 255.152 80.5029 255.992 80.9669 257.088C81.4309 258.184 81.6429 259.492 81.6029 261.012H79.8029V260.388C79.7709 258.708 79.4069 257.44 78.7109 256.584C78.0229 255.728 77.0149 255.3 75.6869 255.3C74.2949 255.3 73.2269 255.752 72.4829 256.656C71.7469 257.56 71.3789 258.848 71.3789 260.52C71.3789 262.152 71.7469 263.42 72.4829 264.324C73.2269 265.22 74.2789 265.668 75.6389 265.668C76.5669 265.668 77.3749 265.456 78.0629 265.032C78.7589 264.6 79.3069 263.98 79.7069 263.172L81.3509 263.808C80.8389 264.936 80.0829 265.812 79.0829 266.436C78.0909 267.052 76.9669 267.36 75.7109 267.36ZM70.7549 261.012V259.536H80.6549V261.012H70.7549ZM87.7396 267.36C86.7636 267.36 85.9436 267.184 85.2796 266.832C84.6236 266.48 84.1316 266.012 83.8036 265.428C83.4756 264.844 83.3116 264.208 83.3116 263.52C83.3116 262.816 83.4516 262.216 83.7316 261.72C84.0196 261.216 84.4076 260.804 84.8956 260.484C85.3916 260.164 85.9636 259.92 86.6116 259.752C87.2676 259.592 87.9916 259.452 88.7836 259.332C89.5836 259.204 90.3636 259.096 91.1236 259.008C91.8916 258.912 92.5636 258.82 93.1396 258.732L92.5156 259.116C92.5396 257.836 92.2916 256.888 91.7716 256.272C91.2516 255.656 90.3476 255.348 89.0596 255.348C88.1716 255.348 87.4196 255.548 86.8036 255.948C86.1956 256.348 85.7676 256.98 85.5196 257.844L83.8036 257.34C84.0996 256.18 84.6956 255.28 85.5916 254.64C86.4876 254 87.6516 253.68 89.0836 253.68C90.2676 253.68 91.2716 253.904 92.0956 254.352C92.9276 254.792 93.5156 255.432 93.8596 256.272C94.0196 256.648 94.1236 257.068 94.1716 257.532C94.2196 257.996 94.2436 258.468 94.2436 258.948V267H92.6716V263.748L93.1276 263.94C92.6876 265.052 92.0036 265.9 91.0756 266.484C90.1476 267.068 89.0356 267.36 87.7396 267.36ZM87.9436 265.836C88.7676 265.836 89.4876 265.688 90.1036 265.392C90.7196 265.096 91.2156 264.692 91.5916 264.18C91.9676 263.66 92.2116 263.076 92.3236 262.428C92.4196 262.012 92.4716 261.556 92.4796 261.06C92.4876 260.556 92.4916 260.18 92.4916 259.932L93.1636 260.28C92.5636 260.36 91.9116 260.44 91.2076 260.52C90.5116 260.6 89.8236 260.692 89.1436 260.796C88.4716 260.9 87.8636 261.024 87.3196 261.168C86.9516 261.272 86.5956 261.42 86.2516 261.612C85.9076 261.796 85.6236 262.044 85.3996 262.356C85.1836 262.668 85.0756 263.056 85.0756 263.52C85.0756 263.896 85.1676 264.26 85.3516 264.612C85.5436 264.964 85.8476 265.256 86.2636 265.488C86.6876 265.72 87.2476 265.836 87.9436 265.836ZM104.424 267C103.696 267.152 102.976 267.212 102.264 267.18C101.56 267.148 100.928 266.996 100.368 266.724C99.8155 266.452 99.3955 266.028 99.1075 265.452C98.8755 264.972 98.7475 264.488 98.7235 264C98.7075 263.504 98.6995 262.94 98.6995 262.308V250.44H100.452V262.236C100.452 262.78 100.456 263.236 100.464 263.604C100.48 263.964 100.564 264.284 100.716 264.564C101.004 265.1 101.46 265.42 102.084 265.524C102.716 265.628 103.496 265.604 104.424 265.452V267ZM95.9275 255.552V254.04H104.424V255.552H95.9275ZM111.992 267.36C110.728 267.36 109.632 267.08 108.704 266.52C107.784 265.96 107.068 265.172 106.556 264.156C106.044 263.14 105.788 261.948 105.788 260.58C105.788 259.164 106.04 257.94 106.544 256.908C107.048 255.876 107.756 255.08 108.668 254.52C109.588 253.96 110.672 253.68 111.92 253.68C113.2 253.68 114.292 253.976 115.196 254.568C116.1 255.152 116.784 255.992 117.248 257.088C117.712 258.184 117.924 259.492 117.884 261.012H116.084V260.388C116.052 258.708 115.688 257.44 114.992 256.584C114.304 255.728 113.296 255.3 111.968 255.3C110.576 255.3 109.508 255.752 108.764 256.656C108.028 257.56 107.66 258.848 107.66 260.52C107.66 262.152 108.028 263.42 108.764 264.324C109.508 265.22 110.56 265.668 111.92 265.668C112.848 265.668 113.656 265.456 114.344 265.032C115.04 264.6 115.588 263.98 115.988 263.172L117.632 263.808C117.12 264.936 116.364 265.812 115.364 266.436C114.372 267.052 113.248 267.36 111.992 267.36ZM107.036 261.012V259.536H116.936V261.012H107.036ZM129.06 267.36C128.084 267.36 127.264 267.184 126.6 266.832C125.944 266.48 125.452 266.012 125.124 265.428C124.796 264.844 124.632 264.208 124.632 263.52C124.632 262.816 124.772 262.216 125.052 261.72C125.34 261.216 125.728 260.804 126.216 260.484C126.712 260.164 127.284 259.92 127.932 259.752C128.588 259.592 129.312 259.452 130.104 259.332C130.904 259.204 131.684 259.096 132.444 259.008C133.212 258.912 133.884 258.82 134.46 258.732L133.836 259.116C133.86 257.836 133.612 256.888 133.092 256.272C132.572 255.656 131.668 255.348 130.38 255.348C129.492 255.348 128.74 255.548 128.124 255.948C127.516 256.348 127.088 256.98 126.84 257.844L125.124 257.34C125.42 256.18 126.016 255.28 126.912 254.64C127.808 254 128.972 253.68 130.404 253.68C131.588 253.68 132.592 253.904 133.416 254.352C134.248 254.792 134.836 255.432 135.18 256.272C135.34 256.648 135.444 257.068 135.492 257.532C135.54 257.996 135.564 258.468 135.564 258.948V267H133.992V263.748L134.448 263.94C134.008 265.052 133.324 265.9 132.396 266.484C131.468 267.068 130.356 267.36 129.06 267.36ZM129.264 265.836C130.088 265.836 130.808 265.688 131.424 265.392C132.04 265.096 132.536 264.692 132.912 264.18C133.288 263.66 133.532 263.076 133.644 262.428C133.74 262.012 133.792 261.556 133.8 261.06C133.808 260.556 133.812 260.18 133.812 259.932L134.484 260.28C133.884 260.36 133.232 260.44 132.528 260.52C131.832 260.6 131.144 260.692 130.464 260.796C129.792 260.9 129.184 261.024 128.64 261.168C128.272 261.272 127.916 261.42 127.572 261.612C127.228 261.796 126.944 262.044 126.72 262.356C126.504 262.668 126.396 263.056 126.396 263.52C126.396 263.896 126.488 264.26 126.672 264.612C126.864 264.964 127.168 265.256 127.584 265.488C128.008 265.72 128.568 265.836 129.264 265.836ZM148.048 267V260.388C148.048 259.668 147.98 259.008 147.844 258.408C147.708 257.8 147.488 257.272 147.184 256.824C146.888 256.368 146.5 256.016 146.02 255.768C145.548 255.52 144.972 255.396 144.292 255.396C143.668 255.396 143.116 255.504 142.636 255.72C142.164 255.936 141.764 256.248 141.436 256.656C141.116 257.056 140.872 257.544 140.704 258.12C140.536 258.696 140.452 259.352 140.452 260.088L139.204 259.812C139.204 258.484 139.436 257.368 139.9 256.464C140.364 255.56 141.004 254.876 141.82 254.412C142.636 253.948 143.572 253.716 144.628 253.716C145.404 253.716 146.08 253.836 146.656 254.076C147.24 254.316 147.732 254.64 148.132 255.048C148.54 255.456 148.868 255.924 149.116 256.452C149.364 256.972 149.544 257.528 149.656 258.12C149.768 258.704 149.824 259.288 149.824 259.872V267H148.048ZM138.676 267V254.04H140.272V257.232H140.452V267H138.676ZM161.451 267.36C160.475 267.36 159.655 267.184 158.991 266.832C158.335 266.48 157.843 266.012 157.515 265.428C157.187 264.844 157.023 264.208 157.023 263.52C157.023 262.816 157.163 262.216 157.443 261.72C157.731 261.216 158.119 260.804 158.607 260.484C159.103 260.164 159.675 259.92 160.323 259.752C160.979 259.592 161.703 259.452 162.495 259.332C163.295 259.204 164.075 259.096 164.835 259.008C165.603 258.912 166.275 258.82 166.851 258.732L166.227 259.116C166.251 257.836 166.003 256.888 165.483 256.272C164.963 255.656 164.059 255.348 162.771 255.348C161.883 255.348 161.131 255.548 160.515 255.948C159.907 256.348 159.479 256.98 159.23 257.844L157.515 257.34C157.811 256.18 158.407 255.28 159.303 254.64C160.199 254 161.363 253.68 162.795 253.68C163.979 253.68 164.983 253.904 165.807 254.352C166.639 254.792 167.227 255.432 167.571 256.272C167.731 256.648 167.835 257.068 167.883 257.532C167.931 257.996 167.955 258.468 167.955 258.948V267H166.383V263.748L166.839 263.94C166.399 265.052 165.715 265.9 164.787 266.484C163.859 267.068 162.747 267.36 161.451 267.36ZM161.655 265.836C162.479 265.836 163.199 265.688 163.815 265.392C164.431 265.096 164.927 264.692 165.303 264.18C165.679 263.66 165.923 263.076 166.035 262.428C166.131 262.012 166.183 261.556 166.191 261.06C166.199 260.556 166.203 260.18 166.203 259.932L166.875 260.28C166.275 260.36 165.623 260.44 164.919 260.52C164.223 260.6 163.535 260.692 162.855 260.796C162.183 260.9 161.575 261.024 161.031 261.168C160.663 261.272 160.307 261.42 159.963 261.612C159.619 261.796 159.335 262.044 159.111 262.356C158.895 262.668 158.787 263.056 158.787 263.52C158.787 263.896 158.879 264.26 159.062 264.612C159.255 264.964 159.559 265.256 159.975 265.488C160.399 265.72 160.959 265.836 161.655 265.836ZM176.454 267.36C175.15 267.36 174.046 267.068 173.142 266.484C172.238 265.9 171.55 265.096 171.078 264.072C170.614 263.04 170.374 261.856 170.358 260.52C170.374 259.16 170.622 257.968 171.102 256.944C171.582 255.912 172.274 255.112 173.178 254.544C174.082 253.968 175.178 253.68 176.466 253.68C177.778 253.68 178.918 254 179.886 254.64C180.862 255.28 181.53 256.156 181.89 257.268L180.162 257.82C179.858 257.044 179.374 256.444 178.71 256.02C178.054 255.588 177.302 255.372 176.454 255.372C175.502 255.372 174.714 255.592 174.09 256.032C173.466 256.464 173.002 257.068 172.698 257.844C172.394 258.62 172.238 259.512 172.23 260.52C172.246 262.072 172.606 263.32 173.31 264.264C174.014 265.2 175.062 265.668 176.454 265.668C177.334 265.668 178.082 265.468 178.698 265.068C179.322 264.66 179.794 264.068 180.114 263.292L181.89 263.82C181.41 264.972 180.706 265.852 179.778 266.46C178.85 267.06 177.742 267.36 176.454 267.36ZM189.392 267.36C188.088 267.36 186.984 267.068 186.08 266.484C185.176 265.9 184.488 265.096 184.016 264.072C183.552 263.04 183.312 261.856 183.296 260.52C183.312 259.16 183.56 257.968 184.04 256.944C184.52 255.912 185.212 255.112 186.116 254.544C187.02 253.968 188.116 253.68 189.404 253.68C190.716 253.68 191.856 254 192.824 254.64C193.8 255.28 194.468 256.156 194.828 257.268L193.1 257.82C192.796 257.044 192.312 256.444 191.648 256.02C190.992 255.588 190.24 255.372 189.392 255.372C188.44 255.372 187.652 255.592 187.028 256.032C186.404 256.464 185.94 257.068 185.636 257.844C185.332 258.62 185.176 259.512 185.168 260.52C185.184 262.072 185.544 263.32 186.248 264.264C186.952 265.2 188 265.668 189.392 265.668C190.272 265.668 191.02 265.468 191.636 265.068C192.26 264.66 192.732 264.068 193.052 263.292L194.828 263.82C194.348 264.972 193.644 265.852 192.716 266.46C191.788 267.06 190.68 267.36 189.392 267.36ZM202.365 267.36C201.077 267.36 199.977 267.068 199.065 266.484C198.153 265.9 197.453 265.092 196.965 264.06C196.477 263.028 196.233 261.844 196.233 260.508C196.233 259.148 196.481 257.956 196.977 256.932C197.473 255.908 198.177 255.112 199.089 254.544C200.009 253.968 201.101 253.68 202.365 253.68C203.661 253.68 204.765 253.972 205.677 254.556C206.597 255.132 207.297 255.936 207.777 256.968C208.265 257.992 208.509 259.172 208.509 260.508C208.509 261.868 208.265 263.064 207.777 264.096C207.289 265.12 206.585 265.92 205.665 266.496C204.745 267.072 203.645 267.36 202.365 267.36ZM202.365 265.668C203.805 265.668 204.877 265.192 205.581 264.24C206.285 263.28 206.637 262.036 206.637 260.508C206.637 258.94 206.281 257.692 205.569 256.764C204.865 255.836 203.797 255.372 202.365 255.372C201.397 255.372 200.597 255.592 199.965 256.032C199.341 256.464 198.873 257.068 198.561 257.844C198.257 258.612 198.105 259.5 198.105 260.508C198.105 262.068 198.465 263.32 199.185 264.264C199.905 265.2 200.965 265.668 202.365 265.668ZM216.113 267.324C215.337 267.324 214.657 267.204 214.073 266.964C213.497 266.724 213.005 266.4 212.597 265.992C212.197 265.584 211.873 265.12 211.625 264.6C211.377 264.072 211.197 263.516 211.085 262.932C210.973 262.34 210.917 261.752 210.917 261.168V254.04H212.693V260.652C212.693 261.364 212.761 262.024 212.897 262.632C213.033 263.24 213.249 263.772 213.545 264.228C213.849 264.676 214.237 265.024 214.709 265.272C215.189 265.52 215.769 265.644 216.449 265.644C217.073 265.644 217.621 265.536 218.093 265.32C218.573 265.104 218.973 264.796 219.293 264.396C219.621 263.988 219.869 263.496 220.037 262.92C220.205 262.336 220.289 261.68 220.289 260.952L221.537 261.228C221.537 262.556 221.305 263.672 220.841 264.576C220.377 265.48 219.737 266.164 218.921 266.628C218.105 267.092 217.169 267.324 216.113 267.324ZM220.469 267V263.808H220.289V254.04H222.053V267H220.469ZM234.767 267V260.388C234.767 259.668 234.699 259.008 234.563 258.408C234.427 257.8 234.207 257.272 233.903 256.824C233.607 256.368 233.219 256.016 232.739 255.768C232.267 255.52 231.691 255.396 231.011 255.396C230.387 255.396 229.835 255.504 229.355 255.72C228.883 255.936 228.483 256.248 228.155 256.656C227.835 257.056 227.591 257.544 227.423 258.12C227.255 258.696 227.171 259.352 227.171 260.088L225.923 259.812C225.923 258.484 226.155 257.368 226.619 256.464C227.083 255.56 227.723 254.876 228.539 254.412C229.355 253.948 230.291 253.716 231.347 253.716C232.123 253.716 232.799 253.836 233.375 254.076C233.959 254.316 234.451 254.64 234.851 255.048C235.259 255.456 235.587 255.924 235.835 256.452C236.083 256.972 236.263 257.528 236.375 258.12C236.487 258.704 236.543 259.288 236.543 259.872V267H234.767ZM225.395 267V254.04H226.991V257.232H227.171V267H225.395ZM246.713 267C245.985 267.152 245.265 267.212 244.553 267.18C243.849 267.148 243.217 266.996 242.657 266.724C242.105 266.452 241.685 266.028 241.397 265.452C241.165 264.972 241.037 264.488 241.013 264C240.997 263.504 240.989 262.94 240.989 262.308V250.44H242.741V262.236C242.741 262.78 242.745 263.236 242.753 263.604C242.769 263.964 242.853 264.284 243.005 264.564C243.293 265.1 243.749 265.42 244.373 265.524C245.005 265.628 245.785 265.604 246.713 265.452V267ZM238.217 255.552V254.04H246.713V255.552H238.217ZM259.483 267.36C258.195 267.36 257.095 267.068 256.183 266.484C255.271 265.9 254.571 265.092 254.083 264.06C253.595 263.028 253.351 261.844 253.351 260.508C253.351 259.148 253.599 257.956 254.095 256.932C254.591 255.908 255.295 255.112 256.207 254.544C257.127 253.968 258.219 253.68 259.483 253.68C260.779 253.68 261.883 253.972 262.795 254.556C263.715 255.132 264.415 255.936 264.895 256.968C265.383 257.992 265.627 259.172 265.627 260.508C265.627 261.868 265.383 263.064 264.895 264.096C264.407 265.12 263.703 265.92 262.783 266.496C261.863 267.072 260.763 267.36 259.483 267.36ZM259.483 265.668C260.923 265.668 261.995 265.192 262.699 264.24C263.403 263.28 263.755 262.036 263.755 260.508C263.755 258.94 263.399 257.692 262.687 256.764C261.983 255.836 260.915 255.372 259.483 255.372C258.515 255.372 257.715 255.592 257.083 256.032C256.459 256.464 255.991 257.068 255.679 257.844C255.375 258.612 255.223 259.5 255.223 260.508C255.223 262.068 255.583 263.32 256.303 264.264C257.023 265.2 258.083 265.668 259.483 265.668ZM268.274 267V254.04H269.858V257.16L269.546 256.752C269.69 256.368 269.878 256.016 270.11 255.696C270.342 255.368 270.594 255.1 270.866 254.892C271.202 254.596 271.594 254.372 272.042 254.22C272.49 254.06 272.942 253.968 273.398 253.944C273.854 253.912 274.27 253.944 274.646 254.04V255.696C274.174 255.576 273.658 255.548 273.098 255.612C272.538 255.676 272.022 255.9 271.55 256.284C271.118 256.62 270.794 257.024 270.578 257.496C270.362 257.96 270.218 258.456 270.146 258.984C270.074 259.504 270.038 260.02 270.038 260.532V267H268.274ZM68.0411 300V282.36H69.8051V300H68.0411ZM78.8147 300.36C77.5267 300.36 76.4267 300.068 75.5147 299.484C74.6027 298.9 73.9027 298.092 73.4147 297.06C72.9267 296.028 72.6827 294.844 72.6827 293.508C72.6827 292.148 72.9307 290.956 73.4267 289.932C73.9227 288.908 74.6267 288.112 75.5387 287.544C76.4587 286.968 77.5507 286.68 78.8147 286.68C80.1107 286.68 81.2147 286.972 82.1267 287.556C83.0467 288.132 83.7467 288.936 84.2267 289.968C84.7147 290.992 84.9587 292.172 84.9587 293.508C84.9587 294.868 84.7147 296.064 84.2267 297.096C83.7387 298.12 83.0347 298.92 82.1147 299.496C81.1947 300.072 80.0947 300.36 78.8147 300.36ZM78.8147 298.668C80.2547 298.668 81.3267 298.192 82.0307 297.24C82.7347 296.28 83.0867 295.036 83.0867 293.508C83.0867 291.94 82.7307 290.692 82.0187 289.764C81.3147 288.836 80.2467 288.372 78.8147 288.372C77.8467 288.372 77.0467 288.592 76.4147 289.032C75.7907 289.464 75.3227 290.068 75.0107 290.844C74.7067 291.612 74.5547 292.5 74.5547 293.508C74.5547 295.068 74.9147 296.32 75.6347 297.264C76.3547 298.2 77.4147 298.668 78.8147 298.668ZM92.7538 306.12C92.0898 306.12 91.4338 306.02 90.7858 305.82C90.1458 305.628 89.5538 305.32 89.0098 304.896C88.4658 304.48 88.0098 303.936 87.6418 303.264L89.2378 302.376C89.5978 303.096 90.1018 303.612 90.7498 303.924C91.4058 304.244 92.0738 304.404 92.7538 304.404C93.6898 304.404 94.4458 304.228 95.0218 303.876C95.6058 303.532 96.0298 303.02 96.2938 302.34C96.5578 301.66 96.6858 300.812 96.6778 299.796V296.34H96.8818V287.04H98.4538V299.82C98.4538 300.188 98.4418 300.54 98.4178 300.876C98.4018 301.22 98.3658 301.556 98.3098 301.884C98.1578 302.852 97.8418 303.648 97.3618 304.272C96.8898 304.896 96.2658 305.36 95.4898 305.664C94.7218 305.968 93.8098 306.12 92.7538 306.12ZM92.6338 300.36C91.4258 300.36 90.3938 300.06 89.5378 299.46C88.6818 298.852 88.0258 298.032 87.5698 297C87.1138 295.968 86.8858 294.804 86.8858 293.508C86.8858 292.22 87.1098 291.06 87.5578 290.028C88.0138 288.996 88.6658 288.18 89.5138 287.58C90.3618 286.98 91.3778 286.68 92.5618 286.68C93.7778 286.68 94.8018 286.976 95.6338 287.568C96.4658 288.16 97.0938 288.972 97.5178 290.004C97.9498 291.028 98.1658 292.196 98.1658 293.508C98.1658 294.796 97.9538 295.96 97.5298 297C97.1058 298.032 96.4818 298.852 95.6578 299.46C94.8338 300.06 93.8258 300.36 92.6338 300.36ZM92.8138 298.716C93.7338 298.716 94.4938 298.492 95.0938 298.044C95.6938 297.596 96.1418 296.98 96.4378 296.196C96.7338 295.404 96.8818 294.508 96.8818 293.508C96.8818 292.492 96.7338 291.596 96.4378 290.82C96.1418 290.036 95.6938 289.424 95.0938 288.984C94.5018 288.544 93.7538 288.324 92.8498 288.324C91.9218 288.324 91.1538 288.552 90.5458 289.008C89.9378 289.464 89.4858 290.084 89.1898 290.868C88.9018 291.652 88.7578 292.532 88.7578 293.508C88.7578 294.492 88.9058 295.38 89.2018 296.172C89.5058 296.956 89.9578 297.576 90.5578 298.032C91.1578 298.488 91.9098 298.716 92.8138 298.716ZM106.854 284.58V282.6H108.618V284.58H106.854ZM106.854 300V287.04H108.618V300H106.854ZM121.575 300V293.388C121.575 292.668 121.507 292.008 121.371 291.408C121.235 290.8 121.015 290.272 120.711 289.824C120.415 289.368 120.027 289.016 119.547 288.768C119.075 288.52 118.499 288.396 117.819 288.396C117.195 288.396 116.643 288.504 116.163 288.72C115.691 288.936 115.291 289.248 114.963 289.656C114.643 290.056 114.399 290.544 114.231 291.12C114.063 291.696 113.979 292.352 113.979 293.088L112.731 292.812C112.731 291.484 112.963 290.368 113.427 289.464C113.891 288.56 114.531 287.876 115.347 287.412C116.163 286.948 117.099 286.716 118.155 286.716C118.931 286.716 119.607 286.836 120.183 287.076C120.767 287.316 121.259 287.64 121.659 288.048C122.067 288.456 122.395 288.924 122.643 289.452C122.891 289.972 123.071 290.528 123.183 291.12C123.295 291.704 123.351 292.288 123.351 292.872V300H121.575ZM112.203 300V287.04H113.799V290.232H113.979V300H112.203ZM138.326 300C137.598 300.152 136.878 300.212 136.166 300.18C135.462 300.148 134.83 299.996 134.27 299.724C133.718 299.452 133.298 299.028 133.01 298.452C132.778 297.972 132.65 297.488 132.626 297C132.61 296.504 132.602 295.94 132.602 295.308V283.44H134.354V295.236C134.354 295.78 134.358 296.236 134.366 296.604C134.382 296.964 134.466 297.284 134.618 297.564C134.906 298.1 135.362 298.42 135.986 298.524C136.618 298.628 137.398 298.604 138.326 298.452V300ZM129.83 288.552V287.04H138.326V288.552H129.83ZM145.822 300.36C144.534 300.36 143.434 300.068 142.522 299.484C141.61 298.9 140.91 298.092 140.422 297.06C139.934 296.028 139.69 294.844 139.69 293.508C139.69 292.148 139.938 290.956 140.434 289.932C140.93 288.908 141.634 288.112 142.546 287.544C143.466 286.968 144.558 286.68 145.822 286.68C147.118 286.68 148.222 286.972 149.134 287.556C150.054 288.132 150.754 288.936 151.234 289.968C151.722 290.992 151.966 292.172 151.966 293.508C151.966 294.868 151.722 296.064 151.234 297.096C150.746 298.12 150.042 298.92 149.122 299.496C148.202 300.072 147.102 300.36 145.822 300.36ZM145.822 298.668C147.262 298.668 148.334 298.192 149.038 297.24C149.742 296.28 150.094 295.036 150.094 293.508C150.094 291.94 149.738 290.692 149.026 289.764C148.322 288.836 147.254 288.372 145.822 288.372C144.854 288.372 144.054 288.592 143.422 289.032C142.798 289.464 142.33 290.068 142.018 290.844C141.714 291.612 141.562 292.5 141.562 293.508C141.562 295.068 141.922 296.32 142.642 297.264C143.362 298.2 144.422 298.668 145.822 298.668ZM164.794 300.36C163.49 300.36 162.386 300.068 161.482 299.484C160.578 298.9 159.89 298.096 159.418 297.072C158.954 296.04 158.714 294.856 158.698 293.52C158.714 292.16 158.962 290.968 159.442 289.944C159.922 288.912 160.614 288.112 161.518 287.544C162.422 286.968 163.518 286.68 164.806 286.68C166.118 286.68 167.258 287 168.226 287.64C169.202 288.28 169.87 289.156 170.23 290.268L168.502 290.82C168.198 290.044 167.714 289.444 167.05 289.02C166.394 288.588 165.642 288.372 164.794 288.372C163.842 288.372 163.054 288.592 162.43 289.032C161.806 289.464 161.342 290.068 161.038 290.844C160.734 291.62 160.578 292.512 160.57 293.52C160.586 295.072 160.946 296.32 161.65 297.264C162.354 298.2 163.402 298.668 164.794 298.668C165.674 298.668 166.422 298.468 167.038 298.068C167.662 297.66 168.134 297.068 168.454 296.292L170.23 296.82C169.75 297.972 169.046 298.852 168.118 299.46C167.19 300.06 166.082 300.36 164.794 300.36ZM177.768 300.36C176.48 300.36 175.38 300.068 174.468 299.484C173.556 298.9 172.856 298.092 172.368 297.06C171.88 296.028 171.636 294.844 171.636 293.508C171.636 292.148 171.884 290.956 172.38 289.932C172.876 288.908 173.58 288.112 174.492 287.544C175.412 286.968 176.504 286.68 177.768 286.68C179.064 286.68 180.168 286.972 181.08 287.556C182 288.132 182.7 288.936 183.18 289.968C183.668 290.992 183.912 292.172 183.912 293.508C183.912 294.868 183.668 296.064 183.18 297.096C182.692 298.12 181.988 298.92 181.068 299.496C180.148 300.072 179.048 300.36 177.768 300.36ZM177.768 298.668C179.208 298.668 180.28 298.192 180.984 297.24C181.688 296.28 182.04 295.036 182.04 293.508C182.04 291.94 181.684 290.692 180.972 289.764C180.268 288.836 179.2 288.372 177.768 288.372C176.8 288.372 176 288.592 175.368 289.032C174.744 289.464 174.276 290.068 173.964 290.844C173.66 291.612 173.508 292.5 173.508 293.508C173.508 295.068 173.868 296.32 174.588 297.264C175.308 298.2 176.368 298.668 177.768 298.668ZM195.919 300V293.388C195.919 292.668 195.851 292.008 195.715 291.408C195.579 290.8 195.359 290.272 195.055 289.824C194.759 289.368 194.371 289.016 193.891 288.768C193.419 288.52 192.843 288.396 192.163 288.396C191.539 288.396 190.987 288.504 190.507 288.72C190.035 288.936 189.635 289.248 189.307 289.656C188.987 290.056 188.743 290.544 188.575 291.12C188.407 291.696 188.323 292.352 188.323 293.088L187.075 292.812C187.075 291.484 187.307 290.368 187.771 289.464C188.235 288.56 188.875 287.876 189.691 287.412C190.507 286.948 191.443 286.716 192.499 286.716C193.275 286.716 193.951 286.836 194.527 287.076C195.111 287.316 195.603 287.64 196.003 288.048C196.411 288.456 196.739 288.924 196.987 289.452C197.235 289.972 197.415 290.528 197.527 291.12C197.639 291.704 197.695 292.288 197.695 292.872V300H195.919ZM186.547 300V287.04H188.143V290.232H188.323V300H186.547ZM207.865 300C207.137 300.152 206.417 300.212 205.705 300.18C205.001 300.148 204.369 299.996 203.809 299.724C203.257 299.452 202.837 299.028 202.549 298.452C202.317 297.972 202.189 297.488 202.165 297C202.149 296.504 202.141 295.94 202.141 295.308V283.44H203.893V295.236C203.893 295.78 203.897 296.236 203.905 296.604C203.921 296.964 204.005 297.284 204.157 297.564C204.445 298.1 204.901 298.42 205.525 298.524C206.157 298.628 206.937 298.604 207.865 298.452V300ZM199.369 288.552V287.04H207.865V288.552H199.369ZM210.658 284.58V282.6H212.422V284.58H210.658ZM210.658 300V287.04H212.422V300H210.658ZM225.38 300V293.388C225.38 292.668 225.312 292.008 225.176 291.408C225.04 290.8 224.82 290.272 224.516 289.824C224.22 289.368 223.832 289.016 223.352 288.768C222.88 288.52 222.304 288.396 221.624 288.396C221 288.396 220.448 288.504 219.968 288.72C219.496 288.936 219.096 289.248 218.768 289.656C218.448 290.056 218.204 290.544 218.036 291.12C217.868 291.696 217.784 292.352 217.784 293.088L216.536 292.812C216.536 291.484 216.768 290.368 217.232 289.464C217.696 288.56 218.336 287.876 219.152 287.412C219.968 286.948 220.904 286.716 221.96 286.716C222.736 286.716 223.412 286.836 223.988 287.076C224.572 287.316 225.064 287.64 225.464 288.048C225.872 288.456 226.2 288.924 226.448 289.452C226.696 289.972 226.876 290.528 226.988 291.12C227.1 291.704 227.156 292.288 227.156 292.872V300H225.38ZM216.008 300V287.04H217.604V290.232H217.784V300H216.008ZM235.226 300.324C234.45 300.324 233.77 300.204 233.186 299.964C232.61 299.724 232.118 299.4 231.71 298.992C231.31 298.584 230.986 298.12 230.738 297.6C230.49 297.072 230.31 296.516 230.198 295.932C230.086 295.34 230.03 294.752 230.03 294.168V287.04H231.806V293.652C231.806 294.364 231.874 295.024 232.01 295.632C232.146 296.24 232.362 296.772 232.658 297.228C232.962 297.676 233.35 298.024 233.822 298.272C234.302 298.52 234.882 298.644 235.562 298.644C236.186 298.644 236.734 298.536 237.206 298.32C237.686 298.104 238.086 297.796 238.406 297.396C238.734 296.988 238.982 296.496 239.15 295.92C239.318 295.336 239.402 294.68 239.402 293.952L240.65 294.228C240.65 295.556 240.418 296.672 239.954 297.576C239.49 298.48 238.85 299.164 238.034 299.628C237.218 300.092 236.282 300.324 235.226 300.324ZM239.582 300V296.808H239.402V287.04H241.166V300H239.582ZM250.004 300.36C248.74 300.36 247.644 300.08 246.716 299.52C245.796 298.96 245.08 298.172 244.568 297.156C244.056 296.14 243.8 294.948 243.8 293.58C243.8 292.164 244.052 290.94 244.556 289.908C245.06 288.876 245.768 288.08 246.68 287.52C247.6 286.96 248.684 286.68 249.932 286.68C251.212 286.68 252.304 286.976 253.208 287.568C254.112 288.152 254.796 288.992 255.26 290.088C255.724 291.184 255.936 292.492 255.896 294.012H254.096V293.388C254.064 291.708 253.7 290.44 253.004 289.584C252.316 288.728 251.308 288.3 249.98 288.3C248.588 288.3 247.52 288.752 246.776 289.656C246.04 290.56 245.672 291.848 245.672 293.52C245.672 295.152 246.04 296.42 246.776 297.324C247.52 298.22 248.572 298.668 249.932 298.668C250.86 298.668 251.668 298.456 252.356 298.032C253.052 297.6 253.6 296.98 254 296.172L255.644 296.808C255.132 297.936 254.376 298.812 253.376 299.436C252.384 300.052 251.26 300.36 250.004 300.36ZM245.048 294.012V292.536H254.948V294.012H245.048Z" fill="#1B1B1B"/>
<rect x="24" y="339" width="275" height="48" rx="16" fill="#1B1B1B"/>
<path d="M144.187 358.075L143.263 359.671C142.493 359.195 141.555 358.838 140.484 358.838C139.385 358.838 138.608 359.272 138.608 360.014C138.608 360.735 139.455 360.952 140.631 361.148L141.184 361.239C142.934 361.526 144.306 362.275 144.306 363.983C144.306 366.146 142.402 367.175 140.295 367.175C138.811 367.175 137.215 366.741 136.165 365.894L137.18 364.319C137.887 364.886 139.042 365.376 140.302 365.376C141.387 365.376 142.227 364.949 142.227 364.193C142.227 363.514 141.513 363.262 140.148 363.045L139.525 362.947C137.796 362.674 136.536 361.911 136.536 360.14C136.536 358.096 138.356 357.032 140.442 357.032C141.814 357.032 142.955 357.34 144.187 358.075ZM147.761 360.217V367H145.934V360.217H147.761ZM146.837 356.822C147.495 356.822 148.006 357.34 148.006 357.998C148.006 358.656 147.495 359.16 146.837 359.16C146.179 359.16 145.675 358.656 145.675 357.998C145.675 357.34 146.179 356.822 146.837 356.822ZM152.382 360.035C153.327 360.035 154.02 360.399 154.482 360.973V360.217H156.274V366.44C156.274 368.617 154.853 369.933 152.613 369.933C151.542 369.933 150.408 369.653 149.645 369.114L150.296 367.623C150.975 368.071 151.724 368.316 152.536 368.316C153.67 368.316 154.468 367.686 154.468 366.517V366.041C154.006 366.608 153.32 366.958 152.382 366.958C150.73 366.958 149.26 365.579 149.26 363.5C149.26 361.414 150.73 360.035 152.382 360.035ZM152.844 361.715C151.801 361.715 151.136 362.513 151.136 363.5C151.136 364.48 151.801 365.278 152.844 365.278C153.859 365.278 154.545 364.508 154.545 363.5C154.545 362.485 153.859 361.715 152.844 361.715ZM161.97 360.035C163.51 360.035 164.609 361.106 164.609 362.681V367H162.782V363.269C162.782 362.289 162.292 361.75 161.459 361.75C160.675 361.75 160.024 362.261 160.024 363.283V367H158.197V360.217H159.975V361.015C160.458 360.294 161.2 360.035 161.97 360.035ZM178.412 357.2V363.087C178.412 365.796 176.683 367.175 174.191 367.175C171.699 367.175 169.97 365.796 169.97 363.087V357.2H171.93V362.989C171.93 364.599 172.84 365.306 174.191 365.306C175.542 365.306 176.452 364.599 176.452 362.989V357.2H178.412ZM184.181 360.035C186.057 360.035 187.471 361.568 187.471 363.605C187.471 365.642 186.057 367.175 184.188 367.175C183.278 367.175 182.634 366.818 182.193 366.293V369.8H180.373V360.217H182.158V360.966C182.599 360.413 183.25 360.035 184.181 360.035ZM183.845 361.736C182.809 361.736 182.102 362.534 182.102 363.605C182.102 364.676 182.809 365.474 183.845 365.474C184.923 365.474 185.595 364.641 185.595 363.605C185.595 362.569 184.923 361.736 183.845 361.736Z" fill="white"/>
<rect x="24.5" y="403.5" width="274" height="47" rx="15.5" stroke="#1B1B1B"/>
<path d="M149.402 429.173V431H142.269V421.2H144.222V429.173H149.402ZM153.86 424.035C155.974 424.035 157.535 425.561 157.535 427.605C157.535 429.649 155.974 431.175 153.86 431.175C151.753 431.175 150.199 429.649 150.199 427.605C150.199 425.561 151.753 424.035 153.86 424.035ZM153.86 425.736C152.831 425.736 152.061 426.506 152.061 427.605C152.061 428.704 152.831 429.474 153.86 429.474C154.889 429.474 155.666 428.704 155.666 427.605C155.666 426.506 154.889 425.736 153.86 425.736ZM161.729 424.035C162.674 424.035 163.367 424.399 163.829 424.973V424.217H165.621V430.44C165.621 432.617 164.2 433.933 161.96 433.933C160.889 433.933 159.755 433.653 158.992 433.114L159.643 431.623C160.322 432.071 161.071 432.316 161.883 432.316C163.017 432.316 163.815 431.686 163.815 430.517V430.041C163.353 430.608 162.667 430.958 161.729 430.958C160.077 430.958 158.607 429.579 158.607 427.5C158.607 425.414 160.077 424.035 161.729 424.035ZM162.191 425.715C161.148 425.715 160.483 426.513 160.483 427.5C160.483 428.48 161.148 429.278 162.191 429.278C163.206 429.278 163.892 428.508 163.892 427.5C163.892 426.485 163.206 425.715 162.191 425.715ZM173.111 421.2V431H171.158V421.2H173.111ZM178.961 424.035C180.501 424.035 181.6 425.106 181.6 426.681V431H179.773V427.269C179.773 426.289 179.283 425.75 178.45 425.75C177.666 425.75 177.015 426.261 177.015 427.283V431H175.188V424.217H176.966V425.015C177.449 424.294 178.191 424.035 178.961 424.035Z" fill="#1B1B1B"/>
</svg>
