<svg width="24" height="24" viewBox="0 0 24 24" fill="none" xmlns="http://www.w3.org/2000/svg">
  <path d="M20.64 12.205c0-.739-.067-1.448-.191-2.132H12v4.03h4.834a4.122 4.122 0 0 1-1.79 2.704v2.254h2.898c1.696-1.562 2.698-3.86 2.698-6.856z" fill="#4285F4"/>
  <path d="M12 21c2.43 0 4.467-.806 5.956-2.209l-2.898-2.254c-.806.54-1.839.86-3.058.86-2.353 0-4.345-1.588-5.058-3.72H3.945v2.34A9 9 0 0 0 12 21z" fill="#34A853"/>
  <path d="M6.942 13.677A5.408 5.408 0 0 1 6.66 12c0-.583.1-1.148.282-1.677V7.983H3.946A9 9 0 0 0 3 12c0 1.438.345 2.801.946 4.017l2.996-2.34z" fill="#FBBC05"/>
  <path d="M12 6.579c1.322 0 2.512.455 3.445 1.348l2.588-2.588C16.461 3.8 14.424 3 12 3A9 9 0 0 0 3.946 7.983l2.996 2.34c.713-2.132 2.705-3.744 5.058-3.744z" fill="#EA4335"/>
</svg>
