<svg width="16" height="16" viewBox="0 0 16 16" fill="none" xmlns="http://www.w3.org/2000/svg">
<path d="M8.18982 12.165C7.88182 12.165 7.58115 12.1192 7.28782 12.0275C6.99815 11.9395 6.75065 11.8167 6.54532 11.659C6.28865 11.472 6.08882 11.2337 5.94582 10.944C5.80282 10.6543 5.73132 10.3427 5.73132 10.009C5.73132 9.71933 5.78815 9.45717 5.90182 9.2225C6.01915 8.98783 6.18232 8.777 6.39132 8.59C6.40598 8.58267 6.42432 8.568 6.44632 8.546C6.46832 8.524 6.49398 8.50017 6.52332 8.4745H8.21182C8.05048 8.56617 7.90198 8.64317 7.76632 8.7055C7.63432 8.76783 7.50782 8.83017 7.38682 8.8925C7.26582 8.95117 7.14848 9.0245 7.03482 9.1125C6.88448 9.23717 6.76898 9.371 6.68832 9.514C6.60765 9.657 6.56732 9.833 6.56732 10.042C6.56732 10.2363 6.60215 10.4105 6.67182 10.5645C6.74515 10.7185 6.84598 10.8523 6.97432 10.966C7.15032 11.12 7.35015 11.2282 7.57382 11.2905C7.79748 11.3528 8.00832 11.384 8.20632 11.384C8.48132 11.384 8.72515 11.3308 8.93782 11.2245C9.15415 11.1182 9.34298 10.9678 9.50432 10.7735C9.59965 10.6745 9.67848 10.559 9.74082 10.427C9.80682 10.295 9.85265 10.1575 9.87832 10.0145H10.7033C10.6777 10.2345 10.619 10.4508 10.5273 10.6635C10.4357 10.8725 10.3183 11.0632 10.1753 11.2355C9.94432 11.5325 9.65832 11.7617 9.31732 11.923C8.97632 12.0843 8.60048 12.165 8.18982 12.165ZM5.36832 9.1675V8.4745H11.0773V9.1675H5.36832ZM5.36832 7.6165V6.9235H11.0773V7.6165H5.36832ZM8.22832 7.6165C8.33098 7.56517 8.44098 7.51017 8.55832 7.4515C8.67932 7.39283 8.79665 7.33417 8.91032 7.2755C9.02398 7.21317 9.12665 7.149 9.21832 7.083C9.31365 7.017 9.38698 6.94917 9.43832 6.8795C9.54465 6.76217 9.62165 6.6375 9.66932 6.5055C9.71698 6.36983 9.74082 6.22867 9.74082 6.082C9.74082 5.86933 9.70232 5.6805 9.62532 5.5155C9.55198 5.3505 9.45298 5.21117 9.32832 5.0975C9.20732 4.98383 9.05332 4.8885 8.86632 4.8115C8.68298 4.7345 8.48132 4.696 8.26132 4.696C8.03032 4.696 7.82132 4.74183 7.63432 4.8335C7.45098 4.9215 7.29332 5.0315 7.16132 5.1635C7.04398 5.2845 6.94682 5.422 6.86982 5.576C6.79648 5.73 6.75065 5.89317 6.73232 6.0655H5.89632C5.91832 5.7905 5.98615 5.53017 6.09982 5.2845C6.21715 5.03883 6.36382 4.82617 6.53982 4.6465C6.75248 4.4155 7.00548 4.23583 7.29882 4.1075C7.59582 3.97917 7.91665 3.915 8.26132 3.915C8.57298 3.915 8.87182 3.96817 9.15782 4.0745C9.44382 4.17717 9.68948 4.32383 9.89482 4.5145C10.1038 4.70517 10.2688 4.938 10.3898 5.213C10.5145 5.48433 10.5768 5.7795 10.5768 6.0985C10.5768 6.33683 10.5383 6.55867 10.4613 6.764C10.3843 6.96933 10.267 7.16917 10.1093 7.3635C10.0397 7.4515 9.95532 7.53583 9.85632 7.6165H8.22832Z" fill="#1B1B1B"/>
<path d="M14.6666 7.99967C14.6666 11.6797 11.68 14.6663 7.99998 14.6663C4.31998 14.6663 1.33331 11.6797 1.33331 7.99967C1.33331 4.31967 4.31998 1.33301 7.99998 1.33301C11.68 1.33301 14.6666 4.31967 14.6666 7.99967Z" stroke="#1B1B1B" stroke-linecap="round" stroke-linejoin="round"/>
</svg>
